<svg width="1535" height="804" viewBox="0 0 1535 804" fill="none" xmlns="http://www.w3.org/2000/svg">
<rect  x="0.5" y="0.5" width="1534" height="803" stroke="#8bbcb3ff" stroke-opacity="0.49"/>
<rect  x="0.5" y="0.5" width="73" height="73" stroke="#8bbcb3ff" stroke-opacity="0.49"/>
<rect  x="73.5" y="0.5" width="73" height="73" stroke="#8bbcb3ff" stroke-opacity="0.49"/>
<rect  x="146.5" y="0.5" width="73" height="73" stroke="#8bbcb3ff" stroke-opacity="0.49"/>
<rect  x="219.5" y="0.5" width="73" height="73" stroke="#8bbcb3ff" stroke-opacity="0.49"/>
<rect  x="292.5" y="0.5" width="73" height="73" stroke="#8bbcb3ff" stroke-opacity="0.49"/>
<rect  x="365.5" y="0.5" width="73" height="73" stroke="#8bbcb3ff" stroke-opacity="0.49"/>
<rect  x="438.5" y="0.5" width="73" height="73" stroke="#8bbcb3ff" stroke-opacity="0.49"/>
<rect  x="511.5" y="0.5" width="73" height="73" stroke="#8bbcb3ff" stroke-opacity="0.49"/>
<rect  x="584.5" y="0.5" width="73" height="73" stroke="#8bbcb3ff" stroke-opacity="0.49"/>
<rect  x="657.5" y="0.5" width="73" height="73" stroke="#8bbcb3ff" stroke-opacity="0.49"/>
<rect  x="730.5" y="0.5" width="73" height="73" stroke="#8bbcb3ff" stroke-opacity="0.49"/>
<rect  x="803.5" y="0.5" width="73" height="73" stroke="#8bbcb3ff" stroke-opacity="0.49"/>
<rect  x="876.5" y="0.5" width="73" height="73" stroke="#8bbcb3ff" stroke-opacity="0.49"/>
<rect  x="949.5" y="0.5" width="73" height="73" stroke="#8bbcb3ff" stroke-opacity="0.49"/>
<rect  x="1022.5" y="0.5" width="73" height="73" stroke="#8bbcb3ff" stroke-opacity="0.49"/>
<rect  x="1095.5" y="0.5" width="73" height="73" stroke="#8bbcb3ff" stroke-opacity="0.49"/>
<rect  x="1168.5" y="0.5" width="73" height="73" stroke="#8bbcb3ff" stroke-opacity="0.49"/>
<rect  x="1241.5" y="0.5" width="73" height="73" stroke="#8bbcb3ff" stroke-opacity="0.49"/>
<rect  x="1314.5" y="0.5" width="73" height="73" stroke="#8bbcb3ff" stroke-opacity="0.49"/>
<rect  x="1387.5" y="0.5" width="73" height="73" stroke="#8bbcb3ff" stroke-opacity="0.49"/>
<rect  x="0.5" y="73.5" width="73" height="73" stroke="#8bbcb3ff" stroke-opacity="0.49"/>
<rect  x="73.5" y="73.5" width="73" height="73" stroke="#8bbcb3ff" stroke-opacity="0.49"/>
<rect  x="146" y="73" width="74" height="74" fill="#80FFE8" fill-opacity="0.39"/>
<rect  x="146.5" y="73.5" width="73" height="73" stroke="#8bbcb3ff" stroke-opacity="0.49"/>
<path d="M219 73H293V147H219V73Z" fill="#80FFE8" fill-opacity="0.39"/>
<path d="M292.5 73.5V146.5H219.5V73.5H292.5Z" stroke="#8bbcb3ff" stroke-opacity="0.49"/>
<rect  x="292.5" y="73.5" width="73" height="73" stroke="#8bbcb3ff" stroke-opacity="0.49"/>
<rect  x="365.5" y="73.5" width="73" height="73" stroke="#8bbcb3ff" stroke-opacity="0.49"/>
<rect  x="438.5" y="73.5" width="73" height="73" stroke="#8bbcb3ff" stroke-opacity="0.49"/>
<path d="M584.5 73.5V146.5H511.5V73.5H584.5Z" stroke="#8bbcb3ff" stroke-opacity="0.49"/>
<rect  x="584.5" y="73.5" width="73" height="73" stroke="#8bbcb3ff" stroke-opacity="0.49"/>
<rect  x="657.5" y="73.5" width="73" height="73" stroke="#8bbcb3ff" stroke-opacity="0.49"/>
<rect  x="730.5" y="73.5" width="73" height="73" stroke="#8bbcb3ff" stroke-opacity="0.49"/>
<rect  x="803.5" y="73.5" width="73" height="73" stroke="#8bbcb3ff" stroke-opacity="0.49"/>
<rect  x="876.5" y="73.5" width="73" height="73" stroke="#8bbcb3ff" stroke-opacity="0.49"/>
<rect  x="949.5" y="73.5" width="73" height="73" stroke="#8bbcb3ff" stroke-opacity="0.49"/>
<rect  x="1022.5" y="73.5" width="73" height="73" stroke="#8bbcb3ff" stroke-opacity="0.49"/>
<rect  x="1095.5" y="73.5" width="73" height="73" stroke="#8bbcb3ff" stroke-opacity="0.49"/>
<rect  x="1168.5" y="73.5" width="73" height="73" stroke="#8bbcb3ff" stroke-opacity="0.49"/>
<rect  x="1241" y="73" width="74" height="74" fill="#80FFE8" fill-opacity="0.39"/>
<rect  x="1241.5" y="73.5" width="73" height="73" stroke="#8bbcb3ff" stroke-opacity="0.49"/>
<rect  x="1314" y="73" width="74" height="74" fill="#80FFE8" fill-opacity="0.39"/>
<rect  x="1314.5" y="73.5" width="73" height="73" stroke="#8bbcb3ff" stroke-opacity="0.49"/>
<rect  x="1387.5" y="73.5" width="73" height="73" stroke="#8bbcb3ff" stroke-opacity="0.49"/>
<rect  x="0.5" y="146.5" width="73" height="73" stroke="#8bbcb3ff" stroke-opacity="0.49"/>
<rect  x="73.5" y="146.5" width="73" height="73" stroke="#8bbcb3ff" stroke-opacity="0.49"/>
<rect  x="146" y="146" width="74" height="74" fill="#80FFE8" fill-opacity="0.39"/>
<rect  x="146.5" y="146.5" width="73" height="73" stroke="#8bbcb3ff" stroke-opacity="0.49"/>
<rect  x="219.5" y="146.5" width="73" height="73" stroke="#8bbcb3ff" stroke-opacity="0.49"/>
<rect  x="292.5" y="146.5" width="73" height="73" stroke="#8bbcb3ff" stroke-opacity="0.49"/>
<rect  x="365.5" y="146.5" width="73" height="73" stroke="#8bbcb3ff" stroke-opacity="0.49"/>
<rect  x="438.5" y="146.5" width="73" height="73" stroke="#8bbcb3ff" stroke-opacity="0.49"/>
<rect  x="511.5" y="146.5" width="73" height="73" stroke="#8bbcb3ff" stroke-opacity="0.49"/>
<rect  x="584.5" y="146.5" width="73" height="73" stroke="#8bbcb3ff" stroke-opacity="0.49"/>
<rect  x="657.5" y="146.5" width="73" height="73" stroke="#8bbcb3ff" stroke-opacity="0.49"/>
<rect  x="730.5" y="146.5" width="73" height="73" stroke="#8bbcb3ff" stroke-opacity="0.49"/>
<rect  x="803.5" y="146.5" width="73" height="73" stroke="#8bbcb3ff" stroke-opacity="0.49"/>
<rect  x="876.5" y="146.5" width="73" height="73" stroke="#8bbcb3ff" stroke-opacity="0.49"/>
<rect  x="949.5" y="146.5" width="73" height="73" stroke="#8bbcb3ff" stroke-opacity="0.49"/>
<rect  x="1022.5" y="146.5" width="73" height="73" stroke="#8bbcb3ff" stroke-opacity="0.49"/>
<rect  x="1095.5" y="146.5" width="73" height="73" stroke="#8bbcb3ff" stroke-opacity="0.49"/>
<rect  x="1168.5" y="146.5" width="73" height="73" stroke="#8bbcb3ff" stroke-opacity="0.49"/>
<rect  x="1241.5" y="146.5" width="73" height="73" stroke="#8bbcb3ff" stroke-opacity="0.49"/>
<rect  x="1314" y="146" width="74" height="74" fill="#80FFE8" fill-opacity="0.39"/>
<rect  x="1314.5" y="146.5" width="73" height="73" stroke="#8bbcb3ff" stroke-opacity="0.49"/>
<rect  x="1387.5" y="146.5" width="73" height="73" stroke="#8bbcb3ff" stroke-opacity="0.49"/>
<rect  x="0.5" y="219.5" width="73" height="73" stroke="#8bbcb3ff" stroke-opacity="0.49"/>
<rect  x="73.5" y="219.5" width="73" height="73" stroke="#8bbcb3ff" stroke-opacity="0.49"/>
<rect  x="146.5" y="219.5" width="73" height="73" stroke="#8bbcb3ff" stroke-opacity="0.49"/>
<rect  x="219.5" y="219.5" width="73" height="73" stroke="#8bbcb3ff" stroke-opacity="0.49"/>
<rect  x="292.5" y="219.5" width="73" height="73" stroke="#8bbcb3ff" stroke-opacity="0.49"/>
<rect  x="365.5" y="219.5" width="73" height="73" stroke="#8bbcb3ff" stroke-opacity="0.49"/>
<rect  x="438.5" y="219.5" width="73" height="73" stroke="#8bbcb3ff" stroke-opacity="0.49"/>
<rect  x="511.5" y="219.5" width="73" height="73" stroke="#8bbcb3ff" stroke-opacity="0.49"/>
<rect  x="584.5" y="219.5" width="73" height="73" stroke="#8bbcb3ff" stroke-opacity="0.49"/>
<rect  x="657.5" y="219.5" width="73" height="73" stroke="#8bbcb3ff" stroke-opacity="0.49"/>
<rect  x="730.5" y="219.5" width="73" height="73" stroke="#8bbcb3ff" stroke-opacity="0.49"/>
<rect  x="803.5" y="219.5" width="73" height="73" stroke="#8bbcb3ff" stroke-opacity="0.49"/>
<rect  x="876.5" y="219.5" width="73" height="73" stroke="#8bbcb3ff" stroke-opacity="0.49"/>
<rect  x="949.5" y="219.5" width="73" height="73" stroke="#8bbcb3ff" stroke-opacity="0.49"/>
<rect  x="1022.5" y="219.5" width="73" height="73" stroke="#8bbcb3ff" stroke-opacity="0.49"/>
<rect  x="1095.5" y="219.5" width="73" height="73" stroke="#8bbcb3ff" stroke-opacity="0.49"/>
<rect  x="1168.5" y="219.5" width="73" height="73" stroke="#8bbcb3ff" stroke-opacity="0.49"/>
<rect  x="1241.5" y="219.5" width="73" height="73" stroke="#8bbcb3ff" stroke-opacity="0.49"/>
<rect  x="1314.5" y="219.5" width="73" height="73" stroke="#8bbcb3ff" stroke-opacity="0.49"/>
<rect  x="1387.5" y="219.5" width="73" height="73" stroke="#8bbcb3ff" stroke-opacity="0.49"/>
<rect  x="0.5" y="292.5" width="73" height="73" stroke="#0AFFD2" stroke-opacity="0.5"/>
<rect  x="73.5" y="292.5" width="73" height="73" stroke="#0AFFD2" stroke-opacity="0.5"/>
<rect  x="146.5" y="292.5" width="73" height="73" stroke="#0AFFD2" stroke-opacity="0.5"/>
<rect  x="219.5" y="292.5" width="73" height="73" stroke="#0AFFD2" stroke-opacity="0.5"/>
<rect  x="292.5" y="292.5" width="73" height="73" stroke="#0AFFD2" stroke-opacity="0.5"/>
<rect  x="365.5" y="292.5" width="73" height="73" stroke="#0AFFD2" stroke-opacity="0.5"/>
<rect  x="438.5" y="292.5" width="73" height="73" stroke="#0AFFD2" stroke-opacity="0.5"/>
<rect  x="511.5" y="292.5" width="73" height="73" stroke="#0AFFD2" stroke-opacity="0.5"/>
<rect  x="584.5" y="292.5" width="73" height="73" stroke="#0AFFD2" stroke-opacity="0.5"/>
<rect  x="657.5" y="292.5" width="73" height="73" stroke="#0AFFD2" stroke-opacity="0.5"/>
<rect  x="730.5" y="292.5" width="73" height="73" stroke="#0AFFD2" stroke-opacity="0.5"/>
<rect  x="803.5" y="292.5" width="73" height="73" stroke="#0AFFD2" stroke-opacity="0.5"/>
<rect  x="876.5" y="292.5" width="73" height="73" stroke="#0AFFD2" stroke-opacity="0.5"/>
<rect  x="949.5" y="292.5" width="73" height="73" stroke="#0AFFD2" stroke-opacity="0.5"/>
<rect  x="1022.5" y="292.5" width="73" height="73" stroke="#0AFFD2" stroke-opacity="0.5"/>
<rect  x="1095.5" y="292.5" width="73" height="73" stroke="#0AFFD2" stroke-opacity="0.5"/>
<rect  x="1168.5" y="292.5" width="73" height="73" stroke="#0AFFD2" stroke-opacity="0.5"/>
<rect  x="1241.5" y="292.5" width="73" height="73" stroke="#0AFFD2" stroke-opacity="0.5"/>
<rect  x="1314.5" y="292.5" width="73" height="73" stroke="#0AFFD2" stroke-opacity="0.5"/>
<rect  x="1387.5" y="292.5" width="73" height="73" stroke="#0AFFD2" stroke-opacity="0.5"/>
<rect  x="0.5" y="365.5" width="73" height="73" stroke="#8bbcb3ff" stroke-opacity="0.49"/>
<rect  x="73.5" y="365.5" width="73" height="73" stroke="#8bbcb3ff" stroke-opacity="0.49"/>
<rect  x="146.5" y="365.5" width="73" height="73" stroke="#8bbcb3ff" stroke-opacity="0.49"/>
<rect  x="219.5" y="365.5" width="73" height="73" stroke="#8bbcb3ff" stroke-opacity="0.49"/>
<rect  x="292.5" y="365.5" width="73" height="73" stroke="#8bbcb3ff" stroke-opacity="0.49"/>
<rect  x="365.5" y="365.5" width="73" height="73" stroke="#8bbcb3ff" stroke-opacity="0.49"/>
<rect  x="438.5" y="365.5" width="73" height="73" stroke="#8bbcb3ff" stroke-opacity="0.49"/>
<rect  x="511.5" y="365.5" width="73" height="73" stroke="#8bbcb3ff" stroke-opacity="0.49"/>
<rect  x="584.5" y="365.5" width="73" height="73" stroke="#8bbcb3ff" stroke-opacity="0.49"/>
<rect  x="657.5" y="365.5" width="73" height="73" stroke="#8bbcb3ff" stroke-opacity="0.49"/>
<rect  x="730.5" y="365.5" width="73" height="73" stroke="#8bbcb3ff" stroke-opacity="0.49"/>
<rect  x="803.5" y="365.5" width="73" height="73" stroke="#8bbcb3ff" stroke-opacity="0.49"/>
<rect  x="876.5" y="365.5" width="73" height="73" stroke="#8bbcb3ff" stroke-opacity="0.49"/>
<rect  x="949.5" y="365.5" width="73" height="73" stroke="#8bbcb3ff" stroke-opacity="0.49"/>
<rect  x="1022.5" y="365.5" width="73" height="73" stroke="#8bbcb3ff" stroke-opacity="0.49"/>
<rect  x="1095.5" y="365.5" width="73" height="73" stroke="#8bbcb3ff" stroke-opacity="0.49"/>
<rect  x="1168.5" y="365.5" width="73" height="73" stroke="#8bbcb3ff" stroke-opacity="0.49"/>
<rect  x="1241.5" y="365.5" width="73" height="73" stroke="#8bbcb3ff" stroke-opacity="0.49"/>
<rect  x="1314.5" y="365.5" width="73" height="73" stroke="#8bbcb3ff" stroke-opacity="0.49"/>
<rect  x="1387.5" y="365.5" width="73" height="73" stroke="#8bbcb3ff" stroke-opacity="0.49"/>
<rect  x="0.5" y="438.5" width="73" height="73" stroke="#8bbcb3ff" stroke-opacity="0.49"/>
<rect  x="73.5" y="438.5" width="73" height="73" stroke="#8bbcb3ff" stroke-opacity="0.49"/>
<rect  x="146.5" y="438.5" width="73" height="73" stroke="#8bbcb3ff" stroke-opacity="0.49"/>
<rect  x="219.5" y="438.5" width="73" height="73" stroke="#8bbcb3ff" stroke-opacity="0.49"/>
<rect  x="292.5" y="438.5" width="73" height="73" stroke="#8bbcb3ff" stroke-opacity="0.49"/>
<rect  x="365.5" y="438.5" width="73" height="73" stroke="#8bbcb3ff" stroke-opacity="0.49"/>
<rect  x="438.5" y="438.5" width="73" height="73" stroke="#8bbcb3ff" stroke-opacity="0.49"/>
<rect  x="511.5" y="438.5" width="73" height="73" stroke="#8bbcb3ff" stroke-opacity="0.49"/>
<rect  x="584.5" y="438.5" width="73" height="73" stroke="#8bbcb3ff" stroke-opacity="0.49"/>
<rect  x="657.5" y="438.5" width="73" height="73" stroke="#8bbcb3ff" stroke-opacity="0.49"/>
<rect  x="730.5" y="438.5" width="73" height="73" stroke="#8bbcb3ff" stroke-opacity="0.49"/>
<rect  x="803.5" y="438.5" width="73" height="73" stroke="#8bbcb3ff" stroke-opacity="0.49"/>
<rect  x="876.5" y="438.5" width="73" height="73" stroke="#8bbcb3ff" stroke-opacity="0.49"/>
<rect  x="949.5" y="438.5" width="73" height="73" stroke="#8bbcb3ff" stroke-opacity="0.49"/>
<rect  x="1022.5" y="438.5" width="73" height="73" stroke="#8bbcb3ff" stroke-opacity="0.49"/>
<rect  x="1095.5" y="438.5" width="73" height="73" stroke="#8bbcb3ff" stroke-opacity="0.49"/>
<rect  x="1168.5" y="438.5" width="73" height="73" stroke="#8bbcb3ff" stroke-opacity="0.49"/>
<rect  x="1241.5" y="438.5" width="73" height="73" stroke="#8bbcb3ff" stroke-opacity="0.49"/>
<rect  x="1314.5" y="438.5" width="73" height="73" stroke="#8bbcb3ff" stroke-opacity="0.49"/>
<rect  x="1387.5" y="438.5" width="73" height="73" stroke="#8bbcb3ff" stroke-opacity="0.49"/>
<rect  x="0.5" y="511.5" width="73" height="73" stroke="#8bbcb3ff" stroke-opacity="0.49"/>
<rect  x="73.5" y="511.5" width="73" height="73" stroke="#8bbcb3ff" stroke-opacity="0.49"/>
<rect  x="146.5" y="511.5" width="73" height="73" stroke="#8bbcb3ff" stroke-opacity="0.49"/>
<rect  x="219.5" y="511.5" width="73" height="73" stroke="#8bbcb3ff" stroke-opacity="0.49"/>
<rect  x="292.5" y="511.5" width="73" height="73" stroke="#8bbcb3ff" stroke-opacity="0.49"/>
<rect  x="365.5" y="511.5" width="73" height="73" stroke="#8bbcb3ff" stroke-opacity="0.49"/>
<rect  x="438.5" y="511.5" width="73" height="73" stroke="#8bbcb3ff" stroke-opacity="0.49"/>
<rect  x="511.5" y="511.5" width="73" height="73" stroke="#8bbcb3ff" stroke-opacity="0.49"/>
<rect  x="584.5" y="511.5" width="73" height="73" stroke="#8bbcb3ff" stroke-opacity="0.49"/>
<rect  x="657.5" y="511.5" width="73" height="73" stroke="#8bbcb3ff" stroke-opacity="0.49"/>
<rect  x="730.5" y="511.5" width="73" height="73" stroke="#8bbcb3ff" stroke-opacity="0.49"/>
<rect  x="803.5" y="511.5" width="73" height="73" stroke="#8bbcb3ff" stroke-opacity="0.49"/>
<rect  x="876.5" y="511.5" width="73" height="73" stroke="#8bbcb3ff" stroke-opacity="0.49"/>
<rect  x="949.5" y="511.5" width="73" height="73" stroke="#8bbcb3ff" stroke-opacity="0.49"/>
<rect  x="1022.5" y="511.5" width="73" height="73" stroke="#8bbcb3ff" stroke-opacity="0.49"/>
<rect  x="1095.5" y="511.5" width="73" height="73" stroke="#8bbcb3ff" stroke-opacity="0.49"/>
<rect  x="1168.5" y="511.5" width="73" height="73" stroke="#8bbcb3ff" stroke-opacity="0.49"/>
<rect  x="1241.5" y="511.5" width="73" height="73" stroke="#8bbcb3ff" stroke-opacity="0.49"/>
<rect  x="1314.5" y="511.5" width="73" height="73" stroke="#8bbcb3ff" stroke-opacity="0.49"/>
<rect  x="1387.5" y="511.5" width="73" height="73" stroke="#8bbcb3ff" stroke-opacity="0.49"/>
<rect  x="0.5" y="584.5" width="73" height="73" stroke="#8bbcb3ff" stroke-opacity="0.49"/>
<rect  x="73.5" y="584.5" width="73" height="73" stroke="#8bbcb3ff" stroke-opacity="0.49"/>
<rect  x="146" y="584" width="74" height="74" fill="#80FFE8" fill-opacity="0.39"/>
<rect  x="146.5" y="584.5" width="73" height="73" stroke="#8bbcb3ff" stroke-opacity="0.49"/>
<rect  x="219.5" y="584.5" width="73" height="73" stroke="#8bbcb3ff" stroke-opacity="0.49"/>
<rect  x="292.5" y="584.5" width="73" height="73" stroke="#8bbcb3ff" stroke-opacity="0.49"/>
<rect  x="365.5" y="584.5" width="73" height="73" stroke="#8bbcb3ff" stroke-opacity="0.49"/>
<rect  x="438.5" y="584.5" width="73" height="73" stroke="#8bbcb3ff" stroke-opacity="0.49"/>
<rect  x="511.5" y="584.5" width="73" height="73" stroke="#8bbcb3ff" stroke-opacity="0.49"/>
<rect  x="584.5" y="584.5" width="73" height="73" stroke="#8bbcb3ff" stroke-opacity="0.49"/>
<rect  x="657.5" y="584.5" width="73" height="73" stroke="#8bbcb3ff" stroke-opacity="0.49"/>
<rect  x="730.5" y="584.5" width="73" height="73" stroke="#8bbcb3ff" stroke-opacity="0.49"/>
<rect  x="803.5" y="584.5" width="73" height="73" stroke="#8bbcb3ff" stroke-opacity="0.49"/>
<rect  x="876.5" y="584.5" width="73" height="73" stroke="#8bbcb3ff" stroke-opacity="0.49"/>
<rect  x="949.5" y="584.5" width="73" height="73" stroke="#8bbcb3ff" stroke-opacity="0.49"/>
<rect  x="1022.5" y="584.5" width="73" height="73" stroke="#8bbcb3ff" stroke-opacity="0.49"/>
<rect  x="1095.5" y="584.5" width="73" height="73" stroke="#8bbcb3ff" stroke-opacity="0.49"/>
<rect  x="1168.5" y="584.5" width="73" height="73" stroke="#8bbcb3ff" stroke-opacity="0.49"/>
<rect  x="1241.5" y="584.5" width="73" height="73" stroke="#8bbcb3ff" stroke-opacity="0.49"/>
<rect  x="1314" y="584" width="74" height="74" fill="#80FFE8" fill-opacity="0.39"/>
<rect  x="1314.5" y="584.5" width="73" height="73" stroke="#8bbcb3ff" stroke-opacity="0.49"/>
<rect  x="1387.5" y="584.5" width="73" height="73" stroke="#8bbcb3ff" stroke-opacity="0.49"/>
<rect  x="0.25" y="657.25" width="1259.5" height="0.5" stroke="#0AFFD2" stroke-opacity="0.5" stroke-width="0.5"/>
<rect  x="0.5" y="657.5" width="73" height="73" stroke="#8bbcb3ff" stroke-opacity="0.49"/>
<rect  x="73.5" y="657.5" width="73" height="73" stroke="#8bbcb3ff" stroke-opacity="0.49"/>
<rect  x="146" y="657" width="74" height="74" fill="#80FFE8" fill-opacity="0.39"/>
<rect  x="146.5" y="657.5" width="73" height="73" stroke="#8bbcb3ff" stroke-opacity="0.49"/>
<rect  x="219" y="657" width="74" height="74" fill="#80FFE8" fill-opacity="0.39"/>
<rect  x="219.5" y="657.5" width="73" height="73" stroke="#8bbcb3ff" stroke-opacity="0.49"/>
<rect  x="292.5" y="657.5" width="73" height="73" stroke="#8bbcb3ff" stroke-opacity="0.49"/>
<rect  x="365.5" y="657.5" width="73" height="73" stroke="#8bbcb3ff" stroke-opacity="0.49"/>
<rect  x="438.5" y="657.5" width="73" height="73" stroke="#8bbcb3ff" stroke-opacity="0.49"/>
<path d="M584.5 657.5V730.5H511.5V657.5H584.5Z" stroke="#8bbcb3ff" stroke-opacity="0.49"/>
<rect  x="584.5" y="657.5" width="73" height="73" stroke="#A5FFEE" stroke-opacity="0.39"/>
<rect  x="657.5" y="657.5" width="73" height="73" stroke="#8bbcb3ff" stroke-opacity="0.49"/>
<rect  x="730.5" y="657.5" width="73" height="73" stroke="#8bbcb3ff" stroke-opacity="0.49"/>
<rect  x="803.5" y="657.5" width="73" height="73" stroke="#8bbcb3ff" stroke-opacity="0.49"/>
<rect  x="876.5" y="657.5" width="73" height="73" stroke="#8bbcb3ff" stroke-opacity="0.49"/>
<rect  x="949.5" y="657.5" width="73" height="73" stroke="#8bbcb3ff" stroke-opacity="0.49"/>
<rect  x="1022.5" y="657.5" width="73" height="73" stroke="#8bbcb3ff" stroke-opacity="0.49"/>
<rect  x="1095.5" y="657.5" width="73" height="73" stroke="#8bbcb3ff" stroke-opacity="0.49"/>
<rect  x="1168.5" y="657.5" width="73" height="73" stroke="#8bbcb3ff" stroke-opacity="0.49"/>
<rect  x="1241" y="657" width="74" height="74" fill="#80FFE8" fill-opacity="0.39"/>
<rect  x="1241.5" y="657.5" width="73" height="73" stroke="#8bbcb3ff" stroke-opacity="0.49"/>
<rect  x="1314" y="657" width="74" height="74" fill="#80FFE8" fill-opacity="0.39"/>
<rect  x="1314.5" y="657.5" width="73" height="73" stroke="#8bbcb3ff" stroke-opacity="0.49"/>
<rect  x="1387.5" y="657.5" width="73" height="73" stroke="#8bbcb3ff" stroke-opacity="0.49"/>
<rect  x="0.5" y="657.5" width="73" height="73" stroke="#8bbcb3ff" stroke-opacity="0.49"/>
<rect  x="73.5" y="657.5" width="73" height="73" stroke="#8bbcb3ff" stroke-opacity="0.49"/>
<rect  x="146.5" y="657.5" width="73" height="73" stroke="#8bbcb3ff" stroke-opacity="0.49"/>
<rect  x="219.5" y="657.5" width="73" height="73" stroke="#8bbcb3ff" stroke-opacity="0.49"/>
<rect  x="292.5" y="657.5" width="73" height="73" stroke="#8bbcb3ff" stroke-opacity="0.49"/>
<rect  x="365.5" y="657.5" width="73" height="73" stroke="#8bbcb3ff" stroke-opacity="0.49"/>
<rect  x="438.5" y="657.5" width="73" height="73" stroke="#8bbcb3ff" stroke-opacity="0.49"/>
<rect  x="511.5" y="657.5" width="73" height="73" stroke="#8bbcb3ff" stroke-opacity="0.49"/>
<rect  x="584.5" y="657.5" width="73" height="73" stroke="#8bbcb3ff" stroke-opacity="0.49"/>
<rect  x="657.5" y="657.5" width="73" height="73" stroke="#8bbcb3ff" stroke-opacity="0.49"/>
<rect  x="730.5" y="657.5" width="73" height="73" stroke="#8bbcb3ff" stroke-opacity="0.49"/>
<rect  x="803.5" y="657.5" width="73" height="73" stroke="#8bbcb3ff" stroke-opacity="0.49"/>
<rect  x="876.5" y="657.5" width="73" height="73" stroke="#8bbcb3ff" stroke-opacity="0.49"/>
<rect  x="949.5" y="657.5" width="73" height="73" stroke="#8bbcb3ff" stroke-opacity="0.49"/>
<rect  x="1022.5" y="657.5" width="73" height="73" stroke="#8bbcb3ff" stroke-opacity="0.49"/>
<rect  x="1095.5" y="657.5" width="73" height="73" stroke="#8bbcb3ff" stroke-opacity="0.49"/>
<rect  x="1168.5" y="657.5" width="73" height="73" stroke="#8bbcb3ff" stroke-opacity="0.49"/>
<rect  x="1241.5" y="657.5" width="73" height="73" stroke="#8bbcb3ff" stroke-opacity="0.49"/>
<rect  x="1314.5" y="657.5" width="73" height="73" stroke="#8bbcb3ff" stroke-opacity="0.49"/>
<rect  x="1387.5" y="657.5" width="73" height="73" stroke="#8bbcb3ff" stroke-opacity="0.49"/>
<g clip-path="url(#clip0_16_31)">
<rect  x="1461.5" y="730.5" width="73" height="73" transform="rotate(-90 1461.5 730.5)" stroke="#8bbcb3ff" stroke-opacity="0.49"/>
<rect  x="1461.5" y="657.5" width="73" height="73" transform="rotate(-90 1461.5 657.5)" stroke="#8bbcb3ff" stroke-opacity="0.49"/>
<rect  x="1461.5" y="584.5" width="73" height="73" transform="rotate(-90 1461.5 584.5)" stroke="#8bbcb3ff" stroke-opacity="0.49"/>
<rect  x="1461.5" y="511.5" width="73" height="73" transform="rotate(-90 1461.5 511.5)" stroke="#8bbcb3ff" stroke-opacity="0.49"/>
<rect  x="1461.5" y="438.5" width="73" height="73" transform="rotate(-90 1461.5 438.5)" stroke="#8bbcb3ff" stroke-opacity="0.49"/>
<rect  x="1461.5" y="365.5" width="73" height="73" transform="rotate(-90 1461.5 365.5)" stroke="#8bbcb3ff" stroke-opacity="0.49"/>
<rect  x="1461.5" y="292.5" width="73" height="73" transform="rotate(-90 1461.5 292.5)" stroke="#8bbcb3ff" stroke-opacity="0.49"/>
<rect  x="1461.5" y="219.5" width="73" height="73" transform="rotate(-90 1461.5 219.5)" stroke="#8bbcb3ff" stroke-opacity="0.49"/>
<rect  x="1461.5" y="146.5" width="73" height="73" transform="rotate(-90 1461.5 146.5)" stroke="#8bbcb3ff" stroke-opacity="0.49"/>
<rect  x="1461.5" y="73.5" width="73" height="73" transform="rotate(-90 1461.5 73.5)" stroke="#8bbcb3ff" stroke-opacity="0.49"/>
<rect  x="1461.5" y="0.5" width="73" height="73" transform="rotate(-90 1461.5 0.5)" stroke="#8bbcb3ff" stroke-opacity="0.49"/>
</g>
<defs>
<clipPath id="clip0_16_31">
<rect  width="731" height="74" fill="white" transform="matrix(0 -1 1 0 1461 731)"/>
</clipPath>
</defs>
</svg>
