<svg width="1535" height="805" viewBox="0 0 1535 805" fill="none" xmlns="http://www.w3.org/2000/svg">
<g opacity="0.3" clip-path="url(#clip0_16_31)">
<rect x="0.5" y="0.5" width="73" height="73" stroke="#70FFE5" stroke-opacity="0.2"/>
<rect x="73.5" y="0.5" width="73" height="73" stroke="#70FFE5" stroke-opacity="0.2"/>
<rect x="146.5" y="0.5" width="73" height="73" stroke="#70FFE5" stroke-opacity="0.2"/>
<rect x="219.5" y="0.5" width="73" height="73" stroke="#70FFE5" stroke-opacity="0.2"/>
<rect x="292.5" y="0.5" width="73" height="73" stroke="#70FFE5" stroke-opacity="0.2"/>
<rect x="365.5" y="0.5" width="73" height="73" stroke="#70FFE5" stroke-opacity="0.2"/>
<rect x="438.5" y="0.5" width="73" height="73" stroke="#70FFE5" stroke-opacity="0.2"/>
<rect x="511.5" y="0.5" width="73" height="73" stroke="#70FFE5" stroke-opacity="0.2"/>
<rect x="584.5" y="0.5" width="73" height="73" stroke="#70FFE5" stroke-opacity="0.2"/>
<rect x="657.5" y="0.5" width="73" height="73" stroke="#70FFE5" stroke-opacity="0.2"/>
<rect x="730.5" y="0.5" width="73" height="73" stroke="#70FFE5" stroke-opacity="0.2"/>
<rect x="803.5" y="0.5" width="73" height="73" stroke="#70FFE5" stroke-opacity="0.2"/>
<rect x="876.5" y="0.5" width="73" height="73" stroke="#70FFE5" stroke-opacity="0.2"/>
<rect x="949.5" y="0.5" width="73" height="73" stroke="#70FFE5" stroke-opacity="0.2"/>
<rect x="1022.5" y="0.5" width="73" height="73" stroke="#70FFE5" stroke-opacity="0.2"/>
<rect x="1095.5" y="0.5" width="73" height="73" stroke="#70FFE5" stroke-opacity="0.2"/>
<rect x="1168.5" y="0.5" width="73" height="73" stroke="#70FFE5" stroke-opacity="0.2"/>
<rect x="1241.5" y="0.5" width="73" height="73" stroke="#70FFE5" stroke-opacity="0.2"/>
<rect x="1314.5" y="0.5" width="73" height="73" stroke="#70FFE5" stroke-opacity="0.2"/>
<rect x="1387.5" y="0.5" width="73" height="73" stroke="#70FFE5" stroke-opacity="0.2"/>
<rect x="0.5" y="73.5" width="73" height="73" stroke="#70FFE5" stroke-opacity="0.2"/>
<rect x="73.5" y="73.5" width="73" height="73" stroke="#70FFE5" stroke-opacity="0.2"/>
<rect x="146" y="73" width="74" height="74" fill="#80FFE8" fill-opacity="0.2"/>
<rect x="146.5" y="73.5" width="73" height="73" stroke="#70FFE5" stroke-opacity="0.2"/>
<path d="M219 73H293V147H219V73Z" fill="#80FFE8" fill-opacity="0.2"/>
<path d="M292.5 73.5V146.5H219.5V73.5H292.5Z" stroke="#70FFE5" stroke-opacity="0.2"/>
<rect x="292.5" y="73.5" width="73" height="73" stroke="#70FFE5" stroke-opacity="0.2"/>
<rect x="365.5" y="73.5" width="73" height="73" stroke="#70FFE5" stroke-opacity="0.2"/>
<rect x="438.5" y="73.5" width="73" height="73" stroke="#70FFE5" stroke-opacity="0.2"/>
<path d="M584.5 73.5V146.5H511.5V73.5H584.5Z" stroke="#70FFE5" stroke-opacity="0.2"/>
<rect x="584.5" y="73.5" width="73" height="73" stroke="#70FFE5" stroke-opacity="0.2"/>
<rect x="657.5" y="73.5" width="73" height="73" stroke="#70FFE5" stroke-opacity="0.2"/>
<rect x="730.5" y="73.5" width="73" height="73" stroke="#70FFE5" stroke-opacity="0.2"/>
<rect x="803.5" y="73.5" width="73" height="73" stroke="#70FFE5" stroke-opacity="0.2"/>
<rect x="876.5" y="73.5" width="73" height="73" stroke="#70FFE5" stroke-opacity="0.2"/>
<rect x="949.5" y="73.5" width="73" height="73" stroke="#70FFE5" stroke-opacity="0.2"/>
<rect x="1022.5" y="73.5" width="73" height="73" stroke="#70FFE5" stroke-opacity="0.2"/>
<rect x="1095.5" y="73.5" width="73" height="73" stroke="#70FFE5" stroke-opacity="0.2"/>
<rect x="1168.5" y="73.5" width="73" height="73" stroke="#70FFE5" stroke-opacity="0.2"/>
<rect x="1241" y="73" width="74" height="74" fill="#80FFE8" fill-opacity="0.2"/>
<rect x="1241.5" y="73.5" width="73" height="73" stroke="#70FFE5" stroke-opacity="0.2"/>
<rect x="1314" y="73" width="74" height="74" fill="#80FFE8" fill-opacity="0.2"/>
<rect x="1314.5" y="73.5" width="73" height="73" stroke="#70FFE5" stroke-opacity="0.2"/>
<rect x="1387.5" y="73.5" width="73" height="73" stroke="#70FFE5" stroke-opacity="0.2"/>
<rect x="0.5" y="146.5" width="73" height="73" stroke="#70FFE5" stroke-opacity="0.2"/>
<rect x="73.5" y="146.5" width="73" height="73" stroke="#70FFE5" stroke-opacity="0.2"/>
<rect x="146" y="146" width="74" height="74" fill="#80FFE8" fill-opacity="0.2"/>
<rect x="146.5" y="146.5" width="73" height="73" stroke="#70FFE5" stroke-opacity="0.2"/>
<rect x="219.5" y="146.5" width="73" height="73" stroke="#70FFE5" stroke-opacity="0.2"/>
<rect x="292.5" y="146.5" width="73" height="73" stroke="#70FFE5" stroke-opacity="0.2"/>
<rect x="365.5" y="146.5" width="73" height="73" stroke="#70FFE5" stroke-opacity="0.2"/>
<rect x="438.5" y="146.5" width="73" height="73" stroke="#70FFE5" stroke-opacity="0.2"/>
<rect x="511.5" y="146.5" width="73" height="73" stroke="#70FFE5" stroke-opacity="0.2"/>
<rect x="584.5" y="146.5" width="73" height="73" stroke="#70FFE5" stroke-opacity="0.2"/>
<rect x="657.5" y="146.5" width="73" height="73" stroke="#70FFE5" stroke-opacity="0.2"/>
<rect x="730.5" y="146.5" width="73" height="73" stroke="#70FFE5" stroke-opacity="0.2"/>
<rect x="803.5" y="146.5" width="73" height="73" stroke="#70FFE5" stroke-opacity="0.2"/>
<rect x="876.5" y="146.5" width="73" height="73" stroke="#70FFE5" stroke-opacity="0.2"/>
<rect x="949.5" y="146.5" width="73" height="73" stroke="#70FFE5" stroke-opacity="0.2"/>
<rect x="1022.5" y="146.5" width="73" height="73" stroke="#70FFE5" stroke-opacity="0.2"/>
<rect x="1095.5" y="146.5" width="73" height="73" stroke="#70FFE5" stroke-opacity="0.2"/>
<rect x="1168.5" y="146.5" width="73" height="73" stroke="#70FFE5" stroke-opacity="0.2"/>
<rect x="1241.5" y="146.5" width="73" height="73" stroke="#70FFE5" stroke-opacity="0.2"/>
<rect x="1314" y="146" width="74" height="74" fill="#80FFE8" fill-opacity="0.2"/>
<rect x="1314.5" y="146.5" width="73" height="73" stroke="#70FFE5" stroke-opacity="0.2"/>
<rect x="1387.5" y="146.5" width="73" height="73" stroke="#70FFE5" stroke-opacity="0.2"/>
<rect x="0.5" y="219.5" width="73" height="73" stroke="#70FFE5" stroke-opacity="0.2"/>
<rect x="73.5" y="219.5" width="73" height="73" stroke="#70FFE5" stroke-opacity="0.2"/>
<rect x="146.5" y="219.5" width="73" height="73" stroke="#70FFE5" stroke-opacity="0.2"/>
<rect x="219.5" y="219.5" width="73" height="73" stroke="#70FFE5" stroke-opacity="0.2"/>
<rect x="292.5" y="219.5" width="73" height="73" stroke="#70FFE5" stroke-opacity="0.2"/>
<rect x="365.5" y="219.5" width="73" height="73" stroke="#70FFE5" stroke-opacity="0.2"/>
<rect x="438.5" y="219.5" width="73" height="73" stroke="#70FFE5" stroke-opacity="0.2"/>
<rect x="511.5" y="219.5" width="73" height="73" stroke="#70FFE5" stroke-opacity="0.2"/>
<rect x="584.5" y="219.5" width="73" height="73" stroke="#70FFE5" stroke-opacity="0.2"/>
<rect x="657.5" y="219.5" width="73" height="73" stroke="#70FFE5" stroke-opacity="0.2"/>
<rect x="730.5" y="219.5" width="73" height="73" stroke="#70FFE5" stroke-opacity="0.2"/>
<rect x="803.5" y="219.5" width="73" height="73" stroke="#70FFE5" stroke-opacity="0.2"/>
<rect x="876.5" y="219.5" width="73" height="73" stroke="#70FFE5" stroke-opacity="0.2"/>
<rect x="949.5" y="219.5" width="73" height="73" stroke="#70FFE5" stroke-opacity="0.2"/>
<rect x="1022.5" y="219.5" width="73" height="73" stroke="#70FFE5" stroke-opacity="0.2"/>
<rect x="1095.5" y="219.5" width="73" height="73" stroke="#70FFE5" stroke-opacity="0.2"/>
<rect x="1168.5" y="219.5" width="73" height="73" stroke="#70FFE5" stroke-opacity="0.2"/>
<rect x="1241.5" y="219.5" width="73" height="73" stroke="#70FFE5" stroke-opacity="0.2"/>
<rect x="1314.5" y="219.5" width="73" height="73" stroke="#70FFE5" stroke-opacity="0.2"/>
<rect x="1387.5" y="219.5" width="73" height="73" stroke="#70FFE5" stroke-opacity="0.2"/>
<rect x="0.5" y="292.5" width="73" height="73" stroke="#0AFFD2" stroke-opacity="0.2"/>
<rect x="73.5" y="292.5" width="73" height="73" stroke="#0AFFD2" stroke-opacity="0.2"/>
<rect x="146.5" y="292.5" width="73" height="73" stroke="#0AFFD2" stroke-opacity="0.2"/>
<rect x="219.5" y="292.5" width="73" height="73" stroke="#0AFFD2" stroke-opacity="0.2"/>
<rect x="292.5" y="292.5" width="73" height="73" stroke="#0AFFD2" stroke-opacity="0.2"/>
<rect x="365.5" y="292.5" width="73" height="73" stroke="#0AFFD2" stroke-opacity="0.2"/>
<rect x="438.5" y="292.5" width="73" height="73" stroke="#0AFFD2" stroke-opacity="0.2"/>
<rect x="511.5" y="292.5" width="73" height="73" stroke="#0AFFD2" stroke-opacity="0.2"/>
<rect x="584.5" y="292.5" width="73" height="73" stroke="#0AFFD2" stroke-opacity="0.2"/>
<rect x="657.5" y="292.5" width="73" height="73" stroke="#0AFFD2" stroke-opacity="0.2"/>
<rect x="730.5" y="292.5" width="73" height="73" stroke="#0AFFD2" stroke-opacity="0.2"/>
<rect x="803.5" y="292.5" width="73" height="73" stroke="#0AFFD2" stroke-opacity="0.2"/>
<rect x="876.5" y="292.5" width="73" height="73" stroke="#0AFFD2" stroke-opacity="0.2"/>
<rect x="949.5" y="292.5" width="73" height="73" stroke="#0AFFD2" stroke-opacity="0.2"/>
<rect x="1022.5" y="292.5" width="73" height="73" stroke="#0AFFD2" stroke-opacity="0.2"/>
<rect x="1095.5" y="292.5" width="73" height="73" stroke="#0AFFD2" stroke-opacity="0.2"/>
<rect x="1168.5" y="292.5" width="73" height="73" stroke="#0AFFD2" stroke-opacity="0.2"/>
<rect x="1241.5" y="292.5" width="73" height="73" stroke="#0AFFD2" stroke-opacity="0.2"/>
<rect x="1314.5" y="292.5" width="73" height="73" stroke="#0AFFD2" stroke-opacity="0.2"/>
<rect x="1387.5" y="292.5" width="73" height="73" stroke="#0AFFD2" stroke-opacity="0.2"/>
<rect x="0.5" y="365.5" width="73" height="73" stroke="#70FFE5" stroke-opacity="0.2"/>
<rect x="73.5" y="365.5" width="73" height="73" stroke="#70FFE5" stroke-opacity="0.2"/>
<rect x="146.5" y="365.5" width="73" height="73" stroke="#70FFE5" stroke-opacity="0.2"/>
<rect x="219.5" y="365.5" width="73" height="73" stroke="#70FFE5" stroke-opacity="0.2"/>
<rect x="292.5" y="365.5" width="73" height="73" stroke="#70FFE5" stroke-opacity="0.2"/>
<rect x="365.5" y="365.5" width="73" height="73" stroke="#70FFE5" stroke-opacity="0.2"/>
<rect x="438.5" y="365.5" width="73" height="73" stroke="#70FFE5" stroke-opacity="0.2"/>
<rect x="511.5" y="365.5" width="73" height="73" stroke="#70FFE5" stroke-opacity="0.2"/>
<rect x="584.5" y="365.5" width="73" height="73" stroke="#70FFE5" stroke-opacity="0.2"/>
<rect x="657.5" y="365.5" width="73" height="73" stroke="#70FFE5" stroke-opacity="0.2"/>
<rect x="730.5" y="365.5" width="73" height="73" stroke="#70FFE5" stroke-opacity="0.2"/>
<rect x="803.5" y="365.5" width="73" height="73" stroke="#70FFE5" stroke-opacity="0.2"/>
<rect x="876.5" y="365.5" width="73" height="73" stroke="#70FFE5" stroke-opacity="0.2"/>
<rect x="949.5" y="365.5" width="73" height="73" stroke="#70FFE5" stroke-opacity="0.2"/>
<rect x="1022.5" y="365.5" width="73" height="73" stroke="#70FFE5" stroke-opacity="0.2"/>
<rect x="1095.5" y="365.5" width="73" height="73" stroke="#70FFE5" stroke-opacity="0.2"/>
<rect x="1168.5" y="365.5" width="73" height="73" stroke="#70FFE5" stroke-opacity="0.2"/>
<rect x="1241.5" y="365.5" width="73" height="73" stroke="#70FFE5" stroke-opacity="0.2"/>
<rect x="1314.5" y="365.5" width="73" height="73" stroke="#70FFE5" stroke-opacity="0.2"/>
<rect x="1387.5" y="365.5" width="73" height="73" stroke="#70FFE5" stroke-opacity="0.2"/>
<rect x="0.5" y="438.5" width="73" height="73" stroke="#70FFE5" stroke-opacity="0.2"/>
<rect x="73.5" y="438.5" width="73" height="73" stroke="#70FFE5" stroke-opacity="0.2"/>
<rect x="146.5" y="438.5" width="73" height="73" stroke="#70FFE5" stroke-opacity="0.2"/>
<rect x="219.5" y="438.5" width="73" height="73" stroke="#70FFE5" stroke-opacity="0.2"/>
<rect x="292.5" y="438.5" width="73" height="73" stroke="#70FFE5" stroke-opacity="0.2"/>
<rect x="365.5" y="438.5" width="73" height="73" stroke="#70FFE5" stroke-opacity="0.2"/>
<rect x="438.5" y="438.5" width="73" height="73" stroke="#70FFE5" stroke-opacity="0.2"/>
<rect x="511.5" y="438.5" width="73" height="73" stroke="#70FFE5" stroke-opacity="0.2"/>
<rect x="584.5" y="438.5" width="73" height="73" stroke="#70FFE5" stroke-opacity="0.2"/>
<rect x="657.5" y="438.5" width="73" height="73" stroke="#70FFE5" stroke-opacity="0.2"/>
<rect x="730.5" y="438.5" width="73" height="73" stroke="#70FFE5" stroke-opacity="0.2"/>
<rect x="803.5" y="438.5" width="73" height="73" stroke="#70FFE5" stroke-opacity="0.2"/>
<rect x="876.5" y="438.5" width="73" height="73" stroke="#70FFE5" stroke-opacity="0.2"/>
<rect x="949.5" y="438.5" width="73" height="73" stroke="#70FFE5" stroke-opacity="0.2"/>
<rect x="1022.5" y="438.5" width="73" height="73" stroke="#70FFE5" stroke-opacity="0.2"/>
<rect x="1095.5" y="438.5" width="73" height="73" stroke="#70FFE5" stroke-opacity="0.2"/>
<rect x="1168.5" y="438.5" width="73" height="73" stroke="#70FFE5" stroke-opacity="0.2"/>
<rect x="1241.5" y="438.5" width="73" height="73" stroke="#70FFE5" stroke-opacity="0.2"/>
<rect x="1314.5" y="438.5" width="73" height="73" stroke="#70FFE5" stroke-opacity="0.2"/>
<rect x="1387.5" y="438.5" width="73" height="73" stroke="#70FFE5" stroke-opacity="0.2"/>
<rect x="0.5" y="511.5" width="73" height="73" stroke="#70FFE5" stroke-opacity="0.2"/>
<rect x="73.5" y="511.5" width="73" height="73" stroke="#70FFE5" stroke-opacity="0.2"/>
<rect x="146.5" y="511.5" width="73" height="73" stroke="#70FFE5" stroke-opacity="0.2"/>
<rect x="219.5" y="511.5" width="73" height="73" stroke="#70FFE5" stroke-opacity="0.2"/>
<rect x="292.5" y="511.5" width="73" height="73" stroke="#70FFE5" stroke-opacity="0.2"/>
<rect x="365.5" y="511.5" width="73" height="73" stroke="#70FFE5" stroke-opacity="0.2"/>
<rect x="438.5" y="511.5" width="73" height="73" stroke="#70FFE5" stroke-opacity="0.2"/>
<rect x="511.5" y="511.5" width="73" height="73" stroke="#70FFE5" stroke-opacity="0.2"/>
<rect x="584.5" y="511.5" width="73" height="73" stroke="#70FFE5" stroke-opacity="0.2"/>
<rect x="657.5" y="511.5" width="73" height="73" stroke="#70FFE5" stroke-opacity="0.2"/>
<rect x="730.5" y="511.5" width="73" height="73" stroke="#70FFE5" stroke-opacity="0.2"/>
<rect x="803.5" y="511.5" width="73" height="73" stroke="#70FFE5" stroke-opacity="0.2"/>
<rect x="876.5" y="511.5" width="73" height="73" stroke="#70FFE5" stroke-opacity="0.2"/>
<rect x="949.5" y="511.5" width="73" height="73" stroke="#70FFE5" stroke-opacity="0.2"/>
<rect x="1022.5" y="511.5" width="73" height="73" stroke="#70FFE5" stroke-opacity="0.2"/>
<rect x="1095.5" y="511.5" width="73" height="73" stroke="#70FFE5" stroke-opacity="0.2"/>
<rect x="1168.5" y="511.5" width="73" height="73" stroke="#70FFE5" stroke-opacity="0.2"/>
<rect x="1241.5" y="511.5" width="73" height="73" stroke="#70FFE5" stroke-opacity="0.2"/>
<rect x="1314.5" y="511.5" width="73" height="73" stroke="#70FFE5" stroke-opacity="0.2"/>
<rect x="1387.5" y="511.5" width="73" height="73" stroke="#70FFE5" stroke-opacity="0.2"/>
<rect x="0.5" y="584.5" width="73" height="73" stroke="#70FFE5" stroke-opacity="0.2"/>
<rect x="73.5" y="584.5" width="73" height="73" stroke="#70FFE5" stroke-opacity="0.2"/>
<rect x="146" y="584" width="74" height="74" fill="#80FFE8" fill-opacity="0.2"/>
<rect x="146.5" y="584.5" width="73" height="73" stroke="#70FFE5" stroke-opacity="0.2"/>
<rect x="219.5" y="584.5" width="73" height="73" stroke="#70FFE5" stroke-opacity="0.2"/>
<rect x="292.5" y="584.5" width="73" height="73" stroke="#70FFE5" stroke-opacity="0.2"/>
<rect x="365.5" y="584.5" width="73" height="73" stroke="#70FFE5" stroke-opacity="0.2"/>
<rect x="438.5" y="584.5" width="73" height="73" stroke="#70FFE5" stroke-opacity="0.2"/>
<rect x="511.5" y="584.5" width="73" height="73" stroke="#70FFE5" stroke-opacity="0.2"/>
<rect x="584.5" y="584.5" width="73" height="73" stroke="#70FFE5" stroke-opacity="0.2"/>
<rect x="657.5" y="584.5" width="73" height="73" stroke="#70FFE5" stroke-opacity="0.2"/>
<rect x="730.5" y="584.5" width="73" height="73" stroke="#70FFE5" stroke-opacity="0.2"/>
<rect x="803.5" y="584.5" width="73" height="73" stroke="#70FFE5" stroke-opacity="0.2"/>
<rect x="876.5" y="584.5" width="73" height="73" stroke="#70FFE5" stroke-opacity="0.2"/>
<rect x="949.5" y="584.5" width="73" height="73" stroke="#70FFE5" stroke-opacity="0.2"/>
<rect x="1022.5" y="584.5" width="73" height="73" stroke="#70FFE5" stroke-opacity="0.2"/>
<rect x="1095.5" y="584.5" width="73" height="73" stroke="#70FFE5" stroke-opacity="0.2"/>
<rect x="1168.5" y="584.5" width="73" height="73" stroke="#70FFE5" stroke-opacity="0.2"/>
<rect x="1241.5" y="584.5" width="73" height="73" stroke="#70FFE5" stroke-opacity="0.2"/>
<rect x="1314" y="584" width="74" height="74" fill="#80FFE8" fill-opacity="0.2"/>
<rect x="1314.5" y="584.5" width="73" height="73" stroke="#70FFE5" stroke-opacity="0.2"/>
<rect x="1387.5" y="584.5" width="73" height="73" stroke="#70FFE5" stroke-opacity="0.2"/>
<rect x="0.5" y="657.5" width="1534" height="157" stroke="#0AFFD2" stroke-opacity="0.2"/>
<rect x="0.5" y="657.5" width="73" height="73" stroke="#70FFE5" stroke-opacity="0.2"/>
<rect x="73.5" y="657.5" width="73" height="73" stroke="#70FFE5" stroke-opacity="0.2"/>
<rect x="146" y="657" width="74" height="74" fill="#80FFE8" fill-opacity="0.2"/>
<rect x="146.5" y="657.5" width="73" height="73" stroke="#70FFE5" stroke-opacity="0.2"/>
<rect x="219" y="657" width="74" height="74" fill="#80FFE8" fill-opacity="0.2"/>
<rect x="219.5" y="657.5" width="73" height="73" stroke="#70FFE5" stroke-opacity="0.2"/>
<rect x="292.5" y="657.5" width="73" height="73" stroke="#70FFE5" stroke-opacity="0.2"/>
<rect x="365.5" y="657.5" width="73" height="73" stroke="#70FFE5" stroke-opacity="0.2"/>
<rect x="438.5" y="657.5" width="73" height="73" stroke="#70FFE5" stroke-opacity="0.2"/>
<path d="M584.5 657.5V730.5H511.5V657.5H584.5Z" stroke="#70FFE5" stroke-opacity="0.2"/>
<rect x="584.5" y="657.5" width="73" height="73" stroke="#A5FFEE" stroke-opacity="0.39"/>
<rect x="657.5" y="657.5" width="73" height="73" stroke="#70FFE5" stroke-opacity="0.2"/>
<rect x="730.5" y="657.5" width="73" height="73" stroke="#70FFE5" stroke-opacity="0.2"/>
<rect x="803.5" y="657.5" width="73" height="73" stroke="#70FFE5" stroke-opacity="0.2"/>
<rect x="876.5" y="657.5" width="73" height="73" stroke="#70FFE5" stroke-opacity="0.2"/>
<rect x="949.5" y="657.5" width="73" height="73" stroke="#70FFE5" stroke-opacity="0.2"/>
<rect x="1022.5" y="657.5" width="73" height="73" stroke="#70FFE5" stroke-opacity="0.2"/>
<rect x="1095.5" y="657.5" width="73" height="73" stroke="#70FFE5" stroke-opacity="0.2"/>
<rect x="1168.5" y="657.5" width="73" height="73" stroke="#70FFE5" stroke-opacity="0.2"/>
<rect x="1241" y="657" width="74" height="74" fill="#80FFE8" fill-opacity="0.2"/>
<rect x="1241.5" y="657.5" width="73" height="73" stroke="#70FFE5" stroke-opacity="0.2"/>
<rect x="1314" y="657" width="74" height="74" fill="#80FFE8" fill-opacity="0.2"/>
<rect x="1314.5" y="657.5" width="73" height="73" stroke="#70FFE5" stroke-opacity="0.2"/>
<rect x="1387.5" y="657.5" width="73" height="73" stroke="#70FFE5" stroke-opacity="0.2"/>
</g>
<g opacity="0.3">
<g clip-path="url(#clip1_16_31)">
<rect x="1461.5" y="804.5" width="73" height="73" transform="rotate(-90 1461.5 804.5)" stroke="#70FFE5" stroke-opacity="0.2"/>
<rect x="1461.5" y="730.5" width="73" height="73" transform="rotate(-90 1461.5 730.5)" stroke="#70FFE5" stroke-opacity="0.2"/>
<rect x="1461.5" y="656.5" width="73" height="73" transform="rotate(-90 1461.5 656.5)" stroke="#70FFE5" stroke-opacity="0.2"/>
<rect x="1461.5" y="582.5" width="73" height="73" transform="rotate(-90 1461.5 582.5)" stroke="#70FFE5" stroke-opacity="0.2"/>
<rect x="1461.5" y="508.5" width="73" height="73" transform="rotate(-90 1461.5 508.5)" stroke="#70FFE5" stroke-opacity="0.2"/>
<rect x="1461.5" y="434.5" width="73" height="73" transform="rotate(-90 1461.5 434.5)" stroke="#70FFE5" stroke-opacity="0.2"/>
<rect x="1461.5" y="360.5" width="73" height="73" transform="rotate(-90 1461.5 360.5)" stroke="#70FFE5" stroke-opacity="0.2"/>
<rect x="1461.5" y="286.5" width="73" height="73" transform="rotate(-90 1461.5 286.5)" stroke="#70FFE5" stroke-opacity="0.2"/>
<rect x="1461.5" y="212.5" width="73" height="73" transform="rotate(-90 1461.5 212.5)" stroke="#70FFE5" stroke-opacity="0.2"/>
<rect x="1461.5" y="138.5" width="73" height="73" transform="rotate(-90 1461.5 138.5)" stroke="#70FFE5" stroke-opacity="0.2"/>
<rect x="1461.5" y="64.5" width="73" height="73" transform="rotate(-90 1461.5 64.5)" stroke="#70FFE5" stroke-opacity="0.2"/>
</g>
<rect x="1461.5" y="804.5" width="804" height="73" transform="rotate(-90 1461.5 804.5)" stroke="#70FFE5" stroke-opacity="0.09"/>
</g>
<defs>
<clipPath id="clip0_16_31">
<rect width="1535" height="731" fill="white"/>
</clipPath>
<clipPath id="clip1_16_31">
<rect x="1461" y="805" width="805" height="74" transform="rotate(-90 1461 805)" fill="white"/>
</clipPath>
</defs>
</svg>
