<svg width="750" height="500" viewBox="0 0 750 500" fill="none" xmlns="http://www.w3.org/2000/svg">
<g clip-path="url(#clip0_0_1)">
<path d="M208.14 147H81.5V60.39H208.14V147ZM82.5 146H207.14V61.39H82.5V146Z" fill="#EBEBEB"/>
<path d="M91.4 66C91.4 66.4984 91.2522 66.9856 90.9753 67.4C90.6984 67.8145 90.3048 68.1374 89.8444 68.3282C89.3839 68.5189 88.8772 68.5688 88.3884 68.4716C87.8995 68.3743 87.4505 68.1343 87.0981 67.7819C86.7457 67.4295 86.5057 66.9805 86.4084 66.4916C86.3112 66.0028 86.3611 65.4961 86.5518 65.0356C86.7426 64.5752 87.0656 64.1816 87.48 63.9047C87.8944 63.6278 88.3816 63.48 88.88 63.48C89.5483 63.48 90.1893 63.7455 90.6619 64.2181C91.1345 64.6907 91.4 65.3317 91.4 66Z" fill="#A6A6A6"/>
<path d="M101.7 66C101.702 66.5012 101.555 66.9918 101.278 67.4093C101.001 67.8269 100.606 68.1528 100.143 68.3455C99.6801 68.5382 99.1706 68.5892 98.6789 68.4919C98.1872 68.3946 97.7355 68.1534 97.381 67.799C97.0266 67.4445 96.7855 66.9928 96.6882 66.5011C96.5908 66.0094 96.6418 65.4999 96.8345 65.0372C97.0272 64.5745 97.3531 64.1795 97.7707 63.9022C98.1882 63.625 98.6788 63.478 99.18 63.48C99.8483 63.48 100.489 63.7455 100.962 64.2181C101.435 64.6907 101.7 65.3317 101.7 66Z" fill="#EBEBEB"/>
<path d="M112 66C112 66.4984 111.852 66.9856 111.575 67.4C111.298 67.8145 110.905 68.1374 110.444 68.3282C109.984 68.5189 109.477 68.5688 108.988 68.4716C108.5 68.3743 108.051 68.1343 107.698 67.7819C107.346 67.4295 107.106 66.9805 107.008 66.4916C106.911 66.0028 106.961 65.4961 107.152 65.0356C107.343 64.5752 107.666 64.1816 108.08 63.9047C108.494 63.6278 108.982 63.48 109.48 63.48C110.148 63.48 110.789 63.7455 111.262 64.2181C111.734 64.6907 112 65.3317 112 66Z" fill="#0F1114"/>
<path d="M207.64 70.41H82V71.41H207.64V70.41Z" fill="#EBEBEB"/>
<path d="M73.84 151.67C74.2803 151.398 74.7876 151.254 75.305 151.254C75.8224 151.254 76.3296 151.398 76.77 151.67C77.01 151.823 77.26 151.963 77.52 152.09C77.77 152.23 78.03 152.36 78.29 152.49C78.7578 152.702 79.1577 153.039 79.4454 153.465C79.7332 153.89 79.8974 154.387 79.92 154.9L80.03 158.5L91.74 158.13L91.63 154.54C91.6149 154.022 91.7444 153.51 92.0041 153.061C92.2637 152.612 92.6432 152.245 93.1 152C93.6137 151.725 94.1112 151.422 94.59 151.09C95.0079 150.792 95.5007 150.616 96.013 150.582C96.5253 150.549 97.0368 150.659 97.49 150.9L100.65 152.6L106.19 142.27L103 140.6C102.548 140.356 102.172 139.992 101.916 139.546C101.66 139.101 101.533 138.593 101.55 138.08C101.56 137.496 101.54 136.912 101.49 136.33C101.441 135.817 101.535 135.3 101.763 134.837C101.991 134.374 102.343 133.984 102.78 133.71L105.78 131.82L99.61 121.82L96.54 123.72C96.1027 123.99 95.5989 124.133 95.085 124.133C94.5711 124.133 94.0673 123.99 93.63 123.72C93.39 123.573 93.14 123.433 92.88 123.3C92.63 123.16 92.37 123.03 92.11 122.91C91.64 122.696 91.2387 122.355 90.9509 121.926C90.6631 121.497 90.5001 120.996 90.48 120.48L90.37 116.89L78.66 117.25L78.77 120.83C78.7853 121.346 78.6569 121.855 78.3991 122.302C78.1412 122.749 77.7641 123.115 77.31 123.36C76.8 123.64 76.31 123.95 75.82 124.28C75.4001 124.578 74.9057 124.754 74.3919 124.787C73.8781 124.821 73.3651 124.711 72.91 124.47L69.75 122.78L64.21 133.1L67.37 134.8C67.8246 135.043 68.2016 135.41 68.458 135.857C68.7143 136.304 68.8398 136.815 68.82 137.33C68.8492 137.923 68.9093 138.514 69 139.1C69.0469 139.613 68.9512 140.129 68.7236 140.591C68.496 141.054 68.1453 141.444 67.71 141.72L64.71 143.61L70.88 153.56L73.84 151.67ZM76.78 133.18C77.6775 131.51 79.0496 130.144 80.7232 129.254C82.3967 128.364 84.2966 127.989 86.1827 128.178C88.0689 128.367 89.8567 129.111 91.3205 130.315C92.7842 131.52 93.8582 133.131 94.4068 134.945C94.9553 136.76 94.9538 138.696 94.4024 140.51C93.8511 142.323 92.7746 143.933 91.309 145.135C89.8433 146.337 88.0543 147.078 86.1678 147.264C84.2814 147.45 82.3821 147.073 80.71 146.18C78.4663 144.976 76.7921 142.931 76.0553 140.493C75.3184 138.056 75.5791 135.425 76.78 133.18Z" fill="#EBEBEB"/>
<path d="M653.36 259.52C653.798 259.248 654.304 259.104 654.82 259.104C655.336 259.104 655.842 259.248 656.28 259.52L657.03 259.95L657.81 260.34C658.278 260.552 658.678 260.889 658.965 261.315C659.253 261.74 659.417 262.237 659.44 262.75L659.55 266.35L671.26 265.98L671.15 262.39C671.136 261.875 671.267 261.366 671.526 260.921C671.786 260.476 672.165 260.112 672.62 259.87C673.128 259.588 673.622 259.281 674.1 258.95C674.521 258.654 675.015 258.48 675.528 258.446C676.042 258.413 676.554 258.521 677.01 258.76L680.17 260.46L685.71 250.13L682.55 248.44C682.097 248.195 681.721 247.828 681.465 247.381C681.209 246.934 681.083 246.425 681.1 245.91C681.11 245.329 681.09 244.749 681.04 244.17C680.991 243.655 681.086 243.137 681.314 242.673C681.541 242.209 681.893 241.817 682.33 241.54L685.33 239.65L679.16 229.65L676.09 231.56C675.653 231.83 675.149 231.973 674.635 231.973C674.121 231.973 673.617 231.83 673.18 231.56L672.43 231.14C672.18 231 671.92 230.87 671.66 230.75C671.19 230.538 670.789 230.2 670.501 229.772C670.213 229.344 670.05 228.845 670.03 228.33L669.92 224.73L658.21 225.09L658.32 228.68C658.336 229.194 658.207 229.703 657.949 230.148C657.691 230.594 657.314 230.958 656.86 231.2C656.345 231.479 655.847 231.79 655.37 232.13C654.949 232.426 654.454 232.6 653.94 232.632C653.427 232.664 652.914 232.552 652.46 232.31L649.3 230.62L643.81 241L646.97 242.69C647.421 242.937 647.796 243.304 648.052 243.75C648.308 244.197 648.435 244.706 648.42 245.22C648.41 245.804 648.43 246.388 648.48 246.97C648.527 247.484 648.43 248.001 648.201 248.464C647.971 248.927 647.618 249.316 647.18 249.59L644.18 251.48L650.35 261.48L653.36 259.52ZM656.3 241C657.198 239.331 658.571 237.965 660.246 237.076C661.92 236.186 663.82 235.813 665.706 236.003C667.592 236.193 669.38 236.938 670.843 238.143C672.306 239.349 673.379 240.961 673.926 242.776C674.474 244.591 674.471 246.528 673.918 248.341C673.365 250.154 672.287 251.763 670.821 252.964C669.354 254.165 667.564 254.905 665.677 255.089C663.791 255.273 661.891 254.894 660.22 254C659.108 253.405 658.124 252.596 657.325 251.62C656.526 250.645 655.927 249.521 655.563 248.313C655.199 247.106 655.077 245.838 655.203 244.583C655.33 243.328 655.702 242.111 656.3 241Z" fill="#EBEBEB"/>
<path d="M97.46 182.31C97.7773 182.493 98.0384 182.759 98.2147 183.08C98.3911 183.401 98.4759 183.764 98.46 184.13C98.46 184.33 98.46 184.53 98.46 184.73C98.46 184.93 98.46 185.14 98.46 185.34C98.4802 185.704 98.3971 186.066 98.2201 186.385C98.0431 186.703 97.7796 186.965 97.46 187.14L95.27 188.4L99.38 195.51L101.56 194.25C101.869 194.079 102.219 193.996 102.571 194.01C102.924 194.025 103.266 194.135 103.56 194.33C103.9 194.55 104.26 194.75 104.62 194.94C104.943 195.1 105.215 195.346 105.406 195.652C105.596 195.957 105.698 196.31 105.7 196.67V199.18H114V196.67C114.002 196.31 114.104 195.957 114.294 195.652C114.485 195.346 114.757 195.1 115.08 194.94C115.44 194.75 115.79 194.55 116.08 194.33C116.375 194.136 116.716 194.026 117.069 194.012C117.421 193.998 117.771 194.08 118.08 194.25L120.26 195.51L124.36 188.4L122.17 187.14C121.85 186.963 121.586 186.7 121.409 186.379C121.232 186.059 121.149 185.695 121.17 185.33C121.17 185.13 121.17 184.93 121.17 184.73C121.17 184.53 121.17 184.33 121.17 184.13C121.149 183.765 121.232 183.401 121.409 183.081C121.586 182.76 121.85 182.497 122.17 182.32L124.35 181.06L120.25 173.95L118.08 175.21C117.764 175.385 117.406 175.47 117.045 175.458C116.684 175.446 116.334 175.336 116.03 175.14C115.688 174.914 115.334 174.707 114.97 174.52C114.646 174.361 114.374 174.115 114.183 173.809C113.992 173.504 113.891 173.15 113.89 172.79V170.28H105.68V172.79C105.679 173.15 105.578 173.504 105.387 173.809C105.196 174.115 104.924 174.361 104.6 174.52C104.234 174.705 103.88 174.912 103.54 175.14C103.242 175.326 102.9 175.431 102.549 175.443C102.198 175.455 101.85 175.375 101.54 175.21L99.39 174L95.28 181.11L97.46 182.31ZM109.85 178C111.181 177.998 112.484 178.391 113.592 179.129C114.7 179.868 115.564 180.918 116.075 182.148C116.586 183.377 116.72 184.731 116.462 186.037C116.203 187.343 115.563 188.543 114.622 189.485C113.682 190.427 112.482 191.069 111.177 191.33C109.871 191.59 108.517 191.458 107.287 190.949C106.057 190.44 105.005 189.577 104.265 188.47C103.525 187.363 103.13 186.061 103.13 184.73C103.133 182.948 103.841 181.239 105.101 179.978C106.36 178.716 108.068 178.005 109.85 178Z" fill="#EBEBEB"/>
<path d="M91.66 285C91.66 283.87 91.81 280.86 91.81 279.58C91.81 274.09 89.81 271.58 84.74 271.46C82.34 271.31 80.91 269.88 80.91 267.85C80.91 265.82 82.34 264.39 84.74 264.24C89.86 264.01 91.81 261.6 91.81 256.04C91.81 254.76 91.66 251.75 91.66 250.62C91.66 243.33 94.75 238.62 106.41 236.11C107.203 235.925 108.036 236.045 108.745 236.445C109.454 236.845 109.987 237.497 110.239 238.272C110.49 239.046 110.442 239.887 110.103 240.627C109.765 241.367 109.16 241.954 108.41 242.27C101.11 244.53 100.06 246.86 100.06 251.98C100.06 253.48 100.21 255.98 100.21 257.54C100.21 263.41 97.35 266.27 92.38 267.85C97.38 269.5 100.21 272.29 100.21 278.15C100.21 279.73 100.06 282.21 100.06 283.72C100.06 288.83 101.06 291.17 108.41 293.42C109.177 293.725 109.798 294.311 110.149 295.057C110.5 295.804 110.554 296.657 110.299 297.442C110.045 298.226 109.501 298.885 108.779 299.284C108.057 299.683 107.21 299.792 106.41 299.59C94.75 297 91.66 292.34 91.66 285Z" fill="#EBEBEB"/>
<path d="M135.74 250.59C135.74 251.72 135.59 254.73 135.59 256.01C135.59 261.57 137.59 264.01 142.74 264.21C145.07 264.36 146.5 265.79 146.5 267.82C146.5 269.85 145.07 271.28 142.74 271.43C137.62 271.58 135.59 274.06 135.59 279.55C135.59 280.83 135.74 283.84 135.74 284.97C135.74 292.34 132.66 296.97 121 299.56C120.182 299.825 119.292 299.755 118.526 299.364C117.76 298.973 117.18 298.293 116.915 297.475C116.65 296.657 116.72 295.767 117.111 295.001C117.502 294.235 118.182 293.655 119 293.39C126.22 291.14 127.28 288.8 127.28 283.69C127.28 282.18 127.13 279.69 127.13 278.12C127.13 272.26 129.98 269.4 134.95 267.82C129.95 266.16 127.13 263.38 127.13 257.51C127.13 255.93 127.28 253.45 127.28 251.95C127.28 246.83 126.22 244.5 119 242.24C118.349 242.037 117.783 241.625 117.39 241.068C116.996 240.512 116.796 239.841 116.82 239.16C116.808 238.655 116.917 238.154 117.139 237.699C117.36 237.245 117.687 236.85 118.093 236.549C118.498 236.247 118.971 236.047 119.469 235.965C119.968 235.884 120.479 235.923 120.96 236.08C132.66 238.63 135.74 243.3 135.74 250.59Z" fill="#EBEBEB"/>
<path d="M621.19 131.26C621.777 131.813 622.183 132.531 622.355 133.32C622.526 134.108 622.455 134.93 622.151 135.677C621.848 136.425 621.325 137.063 620.652 137.508C619.979 137.952 619.187 138.183 618.38 138.17C617.268 138.192 616.192 137.779 615.38 137.02L597.38 118.76C597.18 118.7 597.12 118.57 597.06 118.38C597 118.327 596.932 118.284 596.86 118.25C596.775 118.089 596.711 117.917 596.67 117.74C596.619 117.716 596.575 117.679 596.542 117.634C596.509 117.589 596.488 117.536 596.48 117.48C596.42 117.35 596.42 117.16 596.35 117.1C596.28 117.04 596.22 116.84 596.22 116.78V116.33C596.22 116.2 596.16 116.14 596.16 115.94C596.16 115.74 596.22 115.69 596.22 115.62V115.18C596.22 115.05 596.35 114.98 596.35 114.92C596.35 114.86 596.42 114.6 596.48 114.41C596.54 114.22 596.54 114.34 596.54 114.28C596.54 114.22 596.74 113.83 596.86 113.7C596.86 113.666 596.874 113.632 596.898 113.608C596.922 113.584 596.956 113.57 596.99 113.57C597.081 113.393 597.215 113.242 597.38 113.13L615.38 94.87C616.156 94.1291 617.187 93.7157 618.26 93.7157C619.333 93.7157 620.364 94.1291 621.14 94.87C621.527 95.2431 621.835 95.6905 622.045 96.1853C622.256 96.6802 622.364 97.2123 622.364 97.75C622.364 98.2877 622.256 98.8198 622.045 99.3147C621.835 99.8095 621.527 100.257 621.14 100.63L606 115.94L621.19 131.26Z" fill="#EBEBEB"/>
<path d="M637.53 133.31L653.22 96C653.404 95.5696 653.671 95.1799 654.006 94.8532C654.342 94.5265 654.738 94.2693 655.173 94.0965C655.608 93.9236 656.073 93.8385 656.541 93.8459C657.009 93.8534 657.471 93.9533 657.9 94.14C658.317 94.3204 658.694 94.5815 659.01 94.9081C659.326 95.2346 659.574 95.6204 659.74 96.0432C659.906 96.4659 659.988 96.9174 659.979 97.3716C659.97 97.8258 659.872 98.2739 659.69 98.69L644 136.06C643.721 136.693 643.262 137.23 642.681 137.605C642.1 137.98 641.422 138.176 640.73 138.17C640.29 138.178 639.854 138.093 639.45 137.92C639.015 137.751 638.619 137.496 638.285 137.171C637.951 136.845 637.686 136.455 637.507 136.024C637.328 135.594 637.237 135.131 637.241 134.665C637.245 134.198 637.343 133.738 637.53 133.31Z" fill="#EBEBEB"/>
<path d="M690.7 118.25C690.7 118.266 690.694 118.281 690.682 118.292C690.671 118.304 690.656 118.31 690.64 118.31C690.505 118.475 690.355 118.625 690.19 118.76L672.19 137.02C671.411 137.759 670.379 138.171 669.305 138.171C668.231 138.171 667.199 137.759 666.42 137.02C666.04 136.643 665.739 136.194 665.533 135.7C665.328 135.205 665.222 134.675 665.222 134.14C665.222 133.605 665.328 133.075 665.533 132.58C665.739 132.086 666.04 131.637 666.42 131.26L681.6 115.94L666.42 100.63C666.04 100.253 665.739 99.8039 665.533 99.3097C665.328 98.8154 665.222 98.2853 665.222 97.75C665.222 97.2147 665.328 96.6846 665.533 96.1903C665.739 95.6961 666.04 95.2473 666.42 94.87C667.197 94.1285 668.231 93.7148 669.305 93.7148C670.379 93.7148 671.413 94.1285 672.19 94.87L690.19 113.13C690.354 113.261 690.505 113.409 690.64 113.57C690.7 113.57 690.7 113.7 690.7 113.7C690.819 113.886 690.926 114.08 691.02 114.28C691.02 114.34 691.09 114.34 691.09 114.41C691.13 114.607 691.194 114.798 691.28 114.98C691.28 115.05 691.34 115.05 691.34 115.18V115.62C691.34 115.69 691.41 115.88 691.41 115.94C691.41 116 691.34 116.2 691.34 116.26V116.78C691.34 116.84 691.28 116.84 691.28 116.91C691.203 117.095 691.139 117.286 691.09 117.48C691.09 117.55 691.02 117.55 691.02 117.67C691.02 117.79 690.83 118 690.7 118.25Z" fill="#EBEBEB"/>
<path d="M59.52 348.2C261.64 347.58 488.36 347.58 690.52 348.2C488.4 348.81 261.68 348.81 59.52 348.2Z" fill="#263238"/>
<path d="M691 199.77C667.64 231.41 643.28 268.12 637.35 307.77C637.28 308.37 638.24 308.57 638.35 307.97C641.036 297.152 644.488 286.538 648.68 276.21C664.04 271.98 679.11 268.51 687.18 253.27C695.4 237.6 694.36 217.17 692.79 200.1C692.74 199.21 691.5 199.16 691 199.77Z" fill="#0F1114"/>
<path d="M649 275.93C659.5 252.38 673 228.74 690.09 209.38C690.2 209.25 690.38 209.43 690.28 209.56C679.07 223.35 670.55 238.37 662.28 253.65C670.01 245.8 678.49 238.77 685.82 230.44C685.96 230.28 686.19 230.52 686.05 230.68C678.78 239.41 670.83 248.89 661.36 255.35C658.813 260.017 656.243 264.717 653.65 269.45C654.29 269.09 654.94 268.78 655.6 268.45C655.71 268.4 655.81 268.57 655.7 268.63C654.98 268.99 654.26 269.38 653.51 269.69C652.28 271.92 651.07 274.15 649.8 276.37C649.44 276.86 648.75 276.43 649 275.93Z" fill="#263238"/>
<path d="M656.78 267.71C663.063 264.187 669.058 260.175 674.71 255.71C674.86 255.59 675.08 255.8 674.93 255.93C669.444 260.68 663.427 264.781 657 268.15C656.75 268.3 656.49 267.88 656.78 267.71Z" fill="#263238"/>
<path d="M634.68 301.89C634.73 302.37 635.54 302.37 635.53 301.89C635.66 288.83 635.53 275.71 635.74 262.58C639.09 255.83 646.27 252.09 651.27 246.68C654.862 242.716 657.989 238.355 660.59 233.68C666.76 222.68 670.11 210.2 671.39 197.68C672.77 183.68 667.47 137.6 661.58 139.2C658.53 140.03 648.64 162.87 646.02 170.42C641.766 182.872 638.653 195.684 636.72 208.7C631.94 239.39 632.34 271 634.68 301.89Z" fill="#0F1114"/>
<path d="M634.59 245.54L634.65 245.48C635.36 228.95 639.09 212.26 642.57 196.23C646.33 178.96 650.72 162.69 659.57 147.29C659.606 147.233 659.662 147.192 659.728 147.175C659.793 147.159 659.862 147.169 659.921 147.202C659.979 147.236 660.022 147.291 660.041 147.356C660.059 147.421 660.052 147.491 660.02 147.55C654.088 159.528 649.496 172.124 646.33 185.11C646.93 184.18 647.65 183.3 648.27 182.42C648.51 182.07 649.09 182.42 648.85 182.75C648.053 184.144 647.122 185.457 646.07 186.67C646.037 186.701 645.995 186.722 645.95 186.73C642.89 199.07 640.7 211.73 638.82 224.3C638.96 224.14 639.09 223.96 639.23 223.81C639.252 223.793 639.28 223.784 639.308 223.784C639.336 223.783 639.364 223.793 639.387 223.81C639.409 223.827 639.426 223.85 639.433 223.878C639.441 223.905 639.44 223.934 639.43 223.96C639.19 224.38 638.93 224.79 638.68 225.21C637.68 231.6 636.85 237.98 635.97 244.31C647.35 234.58 657.08 223.11 662.56 208.98C662.565 208.969 662.572 208.96 662.582 208.954C662.592 208.947 662.603 208.944 662.615 208.944C662.627 208.944 662.638 208.947 662.648 208.954C662.658 208.96 662.665 208.969 662.67 208.98C657.3 223.63 648.83 236.66 635.79 245.56L635.07 250.66C635.02 251.01 634.46 250.92 634.46 250.58C634.46 249.07 634.54 247.58 634.6 246.05C634.563 246.019 634.533 245.98 634.513 245.937C634.492 245.893 634.481 245.845 634.48 245.797C634.479 245.749 634.488 245.701 634.507 245.657C634.526 245.612 634.554 245.573 634.59 245.54Z" fill="#263238"/>
<path d="M640 221.58C648.7 208.58 656.82 195.99 663.19 181.64C663.26 181.48 663.54 181.64 663.47 181.76C658.11 196.02 650.6 210.47 640.47 221.92C640.18 222.15 639.77 221.85 640 221.58Z" fill="#263238"/>
<path d="M651.51 178.43C655.11 172.06 658.91 165.85 662.31 159.35C662.4 159.17 662.65 159.35 662.57 159.5C659.794 166.289 656.273 172.749 652.07 178.76C651.83 179.09 651.3 178.8 651.51 178.43Z" fill="#263238"/>
<path d="M650.1 181.21C650.111 181.215 650.12 181.222 650.126 181.232C650.133 181.242 650.136 181.253 650.136 181.265C650.136 181.277 650.133 181.288 650.126 181.298C650.12 181.308 650.111 181.315 650.1 181.32C650.089 181.315 650.08 181.308 650.074 181.298C650.067 181.288 650.064 181.277 650.064 181.265C650.064 181.253 650.067 181.242 650.074 181.232C650.08 181.222 650.089 181.215 650.1 181.21Z" fill="#263238"/>
<path d="M625.84 264.11C625.663 272.769 624.642 281.39 622.79 289.85C622.92 290.78 623.05 291.71 623.19 292.67C625.854 283.323 627.398 273.692 627.79 263.98C627.869 263.845 627.911 263.691 627.911 263.535C627.911 263.379 627.869 263.225 627.79 263.09C628.192 250.062 627.257 237.027 625 224.19C620.95 200.19 612.11 177.14 595.37 159.14C595.231 159.022 595.068 158.938 594.891 158.893C594.715 158.848 594.531 158.843 594.353 158.88C594.174 158.916 594.007 158.993 593.863 159.104C593.718 159.215 593.601 159.357 593.52 159.52C586.76 176.7 589.12 197.21 594.88 214.35C598.013 223.617 602.484 232.376 608.15 240.35C613.85 248.46 621.17 255.29 625.84 264.11Z" fill="#0F1114"/>
<path d="M597.3 167.18C613.17 192.94 624.21 223.47 625.56 253.9C625.56 254.44 624.68 254.58 624.56 254.03C624.19 251.29 623.77 248.58 623.33 245.89C616.77 239.6 610.03 232.96 605.33 225.11C605.24 224.97 605.44 224.81 605.55 224.93C611.26 231.46 616.55 238.15 623.04 243.93C621.913 237.197 620.557 230.573 618.97 224.06C618.54 223.57 618.13 223.06 617.71 222.58C617.44 222.26 617.89 221.79 618.18 222.11L618.56 222.53C616.324 213.593 613.556 204.797 610.27 196.19C606.27 191.37 601.71 187.19 598.77 181.4C598.754 181.372 598.75 181.339 598.758 181.308C598.767 181.277 598.787 181.251 598.815 181.235C598.843 181.219 598.876 181.215 598.907 181.223C598.938 181.232 598.964 181.252 598.98 181.28C601.262 184.647 603.712 187.898 606.32 191.02C607.39 192.25 608.56 193.4 609.67 194.59C606.007 185.257 601.662 176.206 596.67 167.51C596.626 167.426 596.617 167.329 596.646 167.239C596.674 167.149 596.736 167.074 596.82 167.03C596.904 166.986 597.001 166.977 597.091 167.006C597.181 167.034 597.256 167.096 597.3 167.18Z" fill="#263238"/>
<path d="M600.51 199C605.64 205.91 611.51 212.49 616.25 219.63C616.39 219.83 616.09 220.04 615.92 219.88C609.79 214.14 604.61 206.29 600.16 199.21C600 198.93 600.36 198.75 600.51 199Z" fill="#263238"/>
<path d="M617 221.18L617.22 221.4C617.37 221.55 617.13 221.78 616.98 221.63L616.76 221.41C616.58 221.26 616.82 221 617 221.18Z" fill="#263238"/>
<path d="M572.44 216.69C573.71 229.94 580.68 245.77 589.18 255.98C592.921 260.419 597.546 264.029 602.76 266.58C608.64 269.49 614.76 272.84 620.89 275.23C623.778 282.588 625.925 290.216 627.3 298C627.5 297.34 627.69 296.65 627.89 296C623.98 262.46 602.28 233.78 574.51 215.37C574.293 215.23 574.04 215.155 573.781 215.154C573.523 215.153 573.269 215.226 573.051 215.365C572.833 215.505 572.66 215.703 572.551 215.938C572.443 216.173 572.404 216.434 572.44 216.69Z" fill="#0F1114"/>
<path d="M582 226.61C581.8 226.43 582.07 226.08 582.28 226.24C597 237.14 610.28 253.04 617.67 269.85C617.87 270.31 617.24 270.71 616.98 270.25C615.69 267.99 614.37 265.79 612.98 263.63C606.64 262.44 600.64 257.98 595.98 253.74C595.85 253.63 596.04 253.44 596.16 253.55C598.58 255.757 601.268 257.652 604.16 259.19C606.75 260.5 609.53 261.33 612.22 262.38C609.87 258.65 607.42 255.07 604.87 251.6C598.04 249.28 591.55 245.09 585.87 240.9C585.69 240.77 585.87 240.47 586.05 240.59C591.778 244.056 597.686 247.214 603.75 250.05C599.884 244.944 595.709 240.078 591.25 235.48C589.1 234.34 586.91 233.2 584.82 231.98C584.65 231.88 584.82 231.59 584.96 231.66C586.695 232.265 588.351 233.077 589.89 234.08C587.38 231.55 584.79 229.05 582 226.61Z" fill="#263238"/>
<path d="M582.62 238.19C582.997 238.414 583.355 238.668 583.69 238.95C583.79 239.04 583.69 239.17 583.55 239.13C583.166 238.946 582.795 238.735 582.44 238.5C582.25 238.37 582.43 238.07 582.62 238.19Z" fill="#263238"/>
<path d="M603.06 286.1H663.3L657.37 348.19H608.99L603.06 286.1Z" fill="#455A64"/>
<path d="M604.2 298.02L603.06 286.1H663.3L662.57 293.79L604.2 298.02Z" fill="#37474F"/>
<path d="M667.38 275.41H598.99V290.53H667.38V275.41Z" fill="#455A64"/>
<path d="M606.76 41.93H143.25V351.98H606.76V41.93Z" fill="#DBDBDB"/>
<path d="M603.39 45.71H146.62V348.2H603.39V45.71Z" fill="#263238"/>
<path d="M667.12 424H82.88V445.48H667.12V424Z" fill="#C7C7C7"/>
<path d="M82.88 424L143.25 351.98H606.75L667.12 424H82.88Z" fill="#DBDBDB"/>
<path d="M606.73 384.63H145.02L168.69 351.98H583.06L606.73 384.63Z" fill="#263238"/>
<path d="M598.46 373.22H153.29L154.25 371.89H597.5L598.46 373.22Z" fill="#37474F"/>
<path d="M589.81 361.3H161.94L162.9 359.96H588.85L589.81 361.3Z" fill="#37474F"/>
<path d="M303.53 415.9L318.49 392.92H432.22L448.23 415.9H303.53Z" fill="#263238"/>
<path d="M417.85 432.63H333.9L331.82 424H419.94L417.85 432.63Z" fill="#DBDBDB"/>
<path d="M577.92 68.69H172.09V325.65H577.92V68.69Z" fill="#37474F"/>
<path d="M577.92 68.69H172.09V78.58H577.92V68.69Z" fill="#0F1114"/>
<path d="M181.39 73.63C181.39 73.9998 181.28 74.3614 181.075 74.6689C180.869 74.9764 180.577 75.2161 180.236 75.3577C179.894 75.4992 179.518 75.5362 179.155 75.4641C178.792 75.3919 178.459 75.2138 178.198 74.9523C177.936 74.6908 177.758 74.3576 177.686 73.9948C177.614 73.6321 177.651 73.2561 177.792 72.9144C177.934 72.5727 178.174 72.2806 178.481 72.0751C178.789 71.8697 179.15 71.76 179.52 71.76C179.766 71.7587 180.01 71.8061 180.237 71.8996C180.465 71.9931 180.671 72.1308 180.845 72.3048C181.019 72.4787 181.157 72.6853 181.25 72.9128C181.344 73.1403 181.391 73.3841 181.39 73.63Z" fill="#C7C7C7"/>
<path d="M189 73.63C189 73.9998 188.89 74.3614 188.685 74.6689C188.479 74.9764 188.187 75.2161 187.846 75.3577C187.504 75.4992 187.128 75.5362 186.765 75.4641C186.402 75.3919 186.069 75.2138 185.808 74.9523C185.546 74.6908 185.368 74.3576 185.296 73.9948C185.224 73.6321 185.261 73.2561 185.402 72.9144C185.544 72.5727 185.784 72.2806 186.091 72.0751C186.399 71.8697 186.76 71.76 187.13 71.76C187.376 71.7587 187.62 71.8061 187.847 71.8996C188.075 71.9931 188.281 72.1308 188.455 72.3048C188.629 72.4787 188.767 72.6853 188.86 72.9128C188.954 73.1403 189.001 73.3841 189 73.63Z" fill="white"/>
<path d="M196.67 73.63C196.67 73.9998 196.56 74.3614 196.355 74.6689C196.149 74.9764 195.857 75.2161 195.516 75.3577C195.174 75.4992 194.798 75.5362 194.435 75.4641C194.072 75.3919 193.739 75.2138 193.478 74.9523C193.216 74.6908 193.038 74.3576 192.966 73.9948C192.894 73.6321 192.931 73.2561 193.072 72.9144C193.214 72.5727 193.454 72.2806 193.761 72.0751C194.069 71.8697 194.43 71.76 194.8 71.76C195.046 71.7587 195.29 71.8061 195.517 71.8996C195.745 71.9931 195.951 72.1308 196.125 72.3048C196.299 72.4787 196.437 72.6853 196.53 72.9128C196.624 73.1403 196.671 73.3841 196.67 73.63Z" fill="#455A64"/>
<path d="M209.44 122.51H198.02V125.98H209.44V122.51Z" fill="#EBEBEB"/>
<path d="M476.01 122.51H222.91V125.98H476.01V122.51Z" fill="#EBEBEB"/>
<path d="M504.72 122.51H483.03V125.98H504.72V122.51Z" fill="#0F1114"/>
<path d="M209.44 138.92H198.02V142.39H209.44V138.92Z" fill="#EBEBEB"/>
<path d="M319.99 138.92H234.04V142.39H319.99V138.92Z" fill="#A6A6A6"/>
<path d="M512.58 204.58H480.07V208.05H512.58V204.58Z" fill="#A6A6A6"/>
<path d="M305.01 188.16H222.91V191.63H305.01V188.16Z" fill="#A6A6A6"/>
<path d="M291.64 155.34H234.04V158.81H291.64V155.34Z" fill="#0F1114"/>
<path d="M512.13 155.34H298.03V158.81H512.13V155.34Z" fill="#A6A6A6"/>
<path d="M472.64 204.58H222.91V208.05H472.64V204.58Z" fill="#0F1114"/>
<path d="M502.3 138.92H325.39V142.39H502.3V138.92Z" fill="#EBEBEB"/>
<path d="M209.44 155.34H198.02V158.81H209.44V155.34Z" fill="#EBEBEB"/>
<path d="M209.44 171.75H198.02V175.22H209.44V171.75Z" fill="#A6A6A6"/>
<path d="M290.39 171.75H222.91V175.22H290.39V171.75Z" fill="#EBEBEB"/>
<path d="M301.52 220.99H234.04V224.46H301.52V220.99Z" fill="#EBEBEB"/>
<path d="M476.09 237.41H295.06V240.88H476.09V237.41Z" fill="#EBEBEB"/>
<path d="M284.76 237.41H234.04V240.88H284.76V237.41Z" fill="#A6A6A6"/>
<path d="M504.71 188.16H309.65V191.63H504.71V188.16Z" fill="#EBEBEB"/>
<path d="M492.23 171.75H297.25V175.22H492.23V171.75Z" fill="#0F1114"/>
<path d="M209.44 188.16H198.02V191.63H209.44V188.16Z" fill="#EBEBEB"/>
<path d="M209.44 204.58H198.02V208.05H209.44V204.58Z" fill="#EBEBEB"/>
<path d="M209.44 220.99H198.02V224.46H209.44V220.99Z" fill="#A6A6A6"/>
<path d="M209.44 237.41H198.02V240.88H209.44V237.41Z" fill="#EBEBEB"/>
<path d="M209.44 252.31H198.02V255.78H209.44V252.31Z" fill="#EBEBEB"/>
<path d="M356.79 252.31H222.91V255.78H356.79V252.31Z" fill="#EBEBEB"/>
<path d="M202.54 106.11C202.629 106.198 202.691 106.31 202.716 106.432C202.741 106.555 202.73 106.682 202.683 106.798C202.635 106.914 202.555 107.013 202.451 107.083C202.347 107.152 202.225 107.19 202.1 107.19C201.929 107.191 201.765 107.126 201.64 107.01L198.81 104.15C198.81 104.15 198.81 104.15 198.76 104.09C198.756 104.063 198.756 104.037 198.76 104.01C198.76 104.01 198.76 104.01 198.76 103.95V103.88C198.76 103.88 198.76 103.88 198.76 103.82V103.75C198.76 103.75 198.76 103.7 198.76 103.67C198.758 103.64 198.758 103.61 198.76 103.58C198.774 103.552 198.795 103.528 198.82 103.51L201.65 100.65C201.771 100.534 201.932 100.469 202.1 100.469C202.268 100.469 202.429 100.534 202.55 100.65C202.61 100.709 202.657 100.779 202.69 100.856C202.722 100.933 202.739 101.016 202.739 101.1C202.739 101.184 202.722 101.267 202.69 101.344C202.657 101.421 202.61 101.491 202.55 101.55L200.17 103.95L202.54 106.11Z" fill="#0F1114"/>
<path d="M205.1 106.43L207.56 100.57C207.588 100.503 207.63 100.441 207.682 100.39C207.734 100.339 207.796 100.299 207.864 100.272C207.932 100.245 208.005 100.232 208.078 100.233C208.151 100.234 208.223 100.25 208.29 100.28C208.356 100.307 208.416 100.347 208.466 100.398C208.516 100.449 208.556 100.509 208.583 100.575C208.61 100.641 208.624 100.711 208.623 100.783C208.623 100.854 208.608 100.924 208.58 100.99L206.11 106.86C206.067 106.959 205.995 107.043 205.905 107.102C205.814 107.16 205.708 107.191 205.6 107.19C205.534 107.204 205.466 107.204 205.4 107.19C205.327 107.164 205.26 107.123 205.204 107.07C205.148 107.016 205.105 106.951 205.076 106.879C205.048 106.807 205.035 106.729 205.039 106.652C205.043 106.574 205.064 106.499 205.1 106.43Z" fill="#0F1114"/>
<path d="M213.44 104.06L213.37 104.14L210.53 107C210.409 107.116 210.248 107.181 210.08 107.181C209.912 107.181 209.751 107.116 209.63 107C209.57 106.941 209.523 106.871 209.49 106.794C209.458 106.717 209.441 106.634 209.441 106.55C209.441 106.466 209.458 106.383 209.49 106.306C209.523 106.229 209.57 106.159 209.63 106.1L212 103.7L209.62 101.3C209.56 101.241 209.513 101.171 209.48 101.094C209.448 101.017 209.431 100.934 209.431 100.85C209.431 100.766 209.448 100.683 209.48 100.606C209.513 100.529 209.56 100.459 209.62 100.4C209.741 100.284 209.902 100.219 210.07 100.219C210.238 100.219 210.399 100.284 210.52 100.4L213.35 103.26L213.42 103.33C213.438 103.359 213.455 103.389 213.47 103.42C213.467 103.45 213.467 103.48 213.47 103.51V103.58V103.66C213.469 103.69 213.469 103.72 213.47 103.75L213.44 104.06Z" fill="#0F1114"/>
<path d="M365.79 244.68H364.23V263.41H365.79V244.68Z" fill="#EBEBEB"/>
<path d="M232.79 460.85C232.79 460.85 272.16 443.35 278.64 440.39C291.64 434.46 314.92 416.19 324.88 409.76C330.7 406 326.05 393.29 308.35 395.45C290.65 397.61 257.65 414.85 254.81 411.14C251.97 407.43 297.81 379.89 304.24 377.67C310.67 375.45 331.9 384.09 344.73 379.67C357.56 375.25 350.87 363.85 340.65 359.56C327.11 353.87 301.32 350.24 291.83 350.24C282.34 350.24 253.14 371.48 253.14 371.48C253.14 371.48 292.52 355.99 297.39 353.12C302.26 350.25 325.7 349.8 340.52 344.49C355.34 339.18 345.66 324 320.88 324.22C306.311 324.207 291.768 325.471 277.42 328C270.42 329.06 228.14 357.06 228.14 357.06C228.14 357.06 236.33 355.29 239.65 354.18C242.97 353.07 275.95 332.29 280.53 329.87C297.82 320.72 310.05 308.48 304.53 300.76C300.53 295.15 277.45 302.32 266.21 308.76C251.27 317.31 208.92 348.66 208.92 348.66L262 312.83C262 312.83 257.71 309.27 243.45 312.41C235.02 314.27 200.45 334.93 194.96 339.12C178.36 351.77 133.72 406.21 133.72 406.21L170.23 453.06L232.79 460.85Z" fill="#AE7461"/>
<path d="M211.4 347.41C223.92 336.95 234.13 325.16 260.78 312.41C260.87 312.41 260.78 312.14 260.68 312.16C241.68 317.02 223.75 332.47 210.99 346.85C210.57 347.38 210.9 347.82 211.4 347.41Z" fill="#263238"/>
<path d="M230.07 356.81C241.16 350.19 253.99 341.3 267.24 334.81C273.74 331.62 276.54 330.97 285.85 326.9C285.94 326.9 285.85 326.66 285.77 326.68C277.34 328.82 275.95 328.57 266.9 331.99C255.12 336.44 235.79 350.76 229.69 356.38C229.21 356.82 229.48 357.15 230.07 356.81Z" fill="#263238"/>
<path d="M250.56 370.55C262.56 365.71 277.13 357.02 289.51 353.02C292.61 352.02 297.35 351.38 304.44 351.38C304.82 351.38 305.29 350.96 304.39 350.8C298.39 349.7 292.44 349.8 288.74 350.8C276.6 354.19 257.14 365.44 250.26 370.06C249.72 370.44 249.93 370.81 250.56 370.55Z" fill="#263238"/>
<path d="M232.79 460.86L208.32 499.92H27.72L133.68 406.21L224.18 396.22L232.79 460.86Z" fill="#AE7461"/>
<path d="M208.32 499.92L214.79 489.58L79.66 453.98L27.72 499.92H208.32Z" fill="#0F1114"/>
<path opacity="0.1" d="M208.32 499.92L214.79 489.58L79.66 453.98L27.72 499.92H208.32Z" fill="black"/>
<path opacity="0.1" d="M28.89 498.88L33.97 494.38V499.91H28.89V498.88Z" fill="black"/>
<path opacity="0.1" d="M207.01 487.53V499.91H201.93V486.19L207.01 487.53Z" fill="black"/>
<path opacity="0.1" d="M172.4 478.41L188.94 482.77H172.4V499.91H167.32V482.77H137.79V499.91H132.71V482.77H103.18V499.91H98.1V482.77H68.58V499.91H63.5V482.77H47.1L52.85 477.69H63.5V468.27L68.58 463.78V477.69H98.1V458.84L103.18 460.18V477.69H132.71V467.96L137.79 469.29V477.69H167.32V477.07L169.66 477.69H172.4V478.41Z" fill="black"/>
<path d="M55.91 470.07L214.79 495.34L229.45 472.73L87.81 441.33L55.91 470.07Z" fill="#0F1114"/>
<path d="M501.44 440.23C501.44 440.23 465.56 422.43 458.83 420.11C445.35 415.45 424.67 395.97 414.13 390.53C407.98 387.35 411.39 374.25 429.22 374.7C447.05 375.15 466.83 389.9 467.71 388.42C470.12 384.42 428.92 365.89 422.32 364.3C415.72 362.71 395.1 368.12 381.9 364.95C368.7 361.78 374.27 349.8 384.03 344.54C396.96 337.54 422.59 336.72 432.03 335.8C441.47 334.88 472.58 353.23 472.58 353.23C472.58 353.23 431.9 341.6 426.77 339.23C421.64 336.86 398.27 338.65 383.01 334.79C367.75 330.93 375.93 314.89 400.61 312.73C415.114 311.329 429.713 311.202 444.24 312.35C451.35 312.73 496.08 336.54 496.08 336.54C496.08 336.54 487.76 335.54 484.35 334.78C480.94 334.02 446.11 316.48 441.35 314.51C423.24 307 409.9 296 414.68 287.81C418.16 281.81 441.78 286.76 453.58 292.08C469.28 299.16 514.44 326.29 514.44 326.29L454.29 294.39C454.29 294.39 457.06 288.68 465.65 289.51C496.34 292.51 521.56 311.77 527.43 315.42C545.17 326.42 594.84 376.32 594.84 376.32L563.78 424L501.44 440.23Z" fill="#AE7461"/>
<path d="M515 322.39C501.11 314.15 483.3 303.2 455.58 292.87C455.49 292.87 455.52 292.67 455.58 292.69C474.51 296.9 500.36 309.07 515.24 322.02C515.77 322.41 515.57 322.71 515 322.39Z" fill="#263238"/>
<path d="M494.14 336.4C482.47 330.89 468.84 323.27 455.03 318.08C448.25 315.53 445.41 315.15 435.75 311.99C435.65 311.99 435.7 311.75 435.81 311.77C444.41 313.09 445.76 312.7 455.1 315.24C467.25 318.54 487.87 330.93 494.48 335.94C495 336.33 494.76 336.69 494.14 336.4Z" fill="#263238"/>
<path d="M475.06 352.06C462.68 348.38 447.32 341.13 434.61 338.35C431.43 337.65 418.86 337.16 411.8 337.84C411.42 337.84 410.92 337.51 411.8 337.26C417.7 335.58 431.4 335.4 435.18 336.07C447.58 338.28 468.04 347.61 475.33 351.55C475.9 351.86 475.72 352.25 475.06 352.06Z" fill="#263238"/>
<path d="M722.28 500.08L594.84 376.32L514.69 379.82L501.44 440.23L537.67 500.08H722.28Z" fill="#AE7461"/>
<path d="M537.67 500.08L516.05 464.37L627.33 407.87L722.28 500.08H537.67Z" fill="#0F1114"/>
<path opacity="0.1" d="M537.67 500.08L516.05 464.37L627.33 407.87L722.28 500.08H537.67Z" fill="black"/>
<path opacity="0.1" d="M633.18 413.55H616.18L626.18 408.47H628L632.16 412.47L633.18 413.55ZM663.58 443.08H557.81V443.17L547.98 448.17H668.81L666.71 446.17L663.58 443.08ZM699.22 477.69H524.11L527.19 482.77H704.45L701.32 479.77L699.22 477.69ZM699.22 477.69L696.22 474.8V500.09H701.3V479.73L699.22 477.69ZM663.58 443.08L661.58 441.18V500.09H666.66V446.09L663.58 443.08ZM628 408.47L627.38 407.87L627 408V500.06H632.09V412.51L628 408.47ZM592.47 425.59V500.09H597.55V423L592.47 425.59ZM558 443.08H557.83V500.08H562.91V440.58L558 443.08ZM523.2 460.74V476.18L524.11 477.69L527.19 482.77L528.28 484.58V458.16L523.2 460.74Z" fill="black"/>
<path d="M507.5 461.2L526.79 489.58L661.8 434.74L625.22 402.01L507.5 461.2Z" fill="#0F1114"/>
</g>
<defs>
<clipPath id="clip0_0_1">
<rect width="750" height="500" fill="white"/>
</clipPath>
</defs>
</svg>
