<svg width="368" height="55" viewBox="0 0 368 55" fill="none" xmlns="http://www.w3.org/2000/svg">
<path d="M23.652 1.332C23.804 0.97733 24.108 0.799996 24.564 0.799996H28.516C29.0227 0.799996 29.276 1.05333 29.276 1.56V53.24C29.276 53.7467 29.0227 54 28.516 54H24.64C24.1333 54 23.88 53.7467 23.88 53.24V12.504C23.88 12.352 23.8293 12.276 23.728 12.276C23.6773 12.276 23.6013 12.3267 23.5 12.428L15.596 28.844C15.444 29.1987 15.1907 29.376 14.836 29.376C14.4307 29.376 14.152 29.1987 14 28.844L6.09601 12.504C5.99467 12.4027 5.89334 12.352 5.79201 12.352C5.74134 12.352 5.71601 12.428 5.71601 12.58V53.24C5.71601 53.7467 5.46267 54 4.95601 54H1.08001C0.573341 54 0.320007 53.7467 0.320007 53.24V1.56C0.320007 1.05333 0.573341 0.799996 1.08001 0.799996H5.03201C5.48801 0.799996 5.79201 0.97733 5.94401 1.332L14.608 18.888C14.6587 18.9893 14.7347 19.04 14.836 19.04C14.9373 19.04 15.0133 18.9893 15.064 18.888L23.652 1.332Z" fill="black"/>
<path d="M35.5448 54C35.0382 54 34.7848 53.7467 34.7848 53.24V1.56C34.7848 1.05333 35.0382 0.799996 35.5448 0.799996H39.4208C39.9275 0.799996 40.1808 1.05333 40.1808 1.56V53.24C40.1808 53.7467 39.9275 54 39.4208 54H35.5448Z" fill="black"/>
<path d="M57.4209 54.608C53.5196 54.608 50.3783 53.4173 47.9969 51.036C45.6663 48.6547 44.5009 45.4627 44.5009 41.46V13.264C44.5009 9.312 45.6663 6.14533 47.9969 3.764C50.3783 1.38267 53.5196 0.191999 57.4209 0.191999C61.3729 0.191999 64.5143 1.38267 66.8449 3.764C69.2263 6.09467 70.4169 9.26133 70.4169 13.264V14.556C70.4169 15.0627 70.1636 15.316 69.6569 15.316L65.7049 15.544C65.1983 15.544 64.9449 15.2907 64.9449 14.784V12.884C64.9449 10.5027 64.2609 8.57733 62.8929 7.108C61.5249 5.63866 59.7009 4.904 57.4209 4.904C55.1916 4.904 53.3676 5.63866 51.9489 7.108C50.5809 8.57733 49.8969 10.5027 49.8969 12.884V41.916C49.8969 44.2973 50.5809 46.2227 51.9489 47.692C53.3676 49.1613 55.1916 49.896 57.4209 49.896C59.7009 49.896 61.5249 49.1613 62.8929 47.692C64.2609 46.2227 64.9449 44.2973 64.9449 41.916V40.016C64.9449 39.5093 65.1983 39.256 65.7049 39.256L69.6569 39.484C70.1636 39.484 70.4169 39.7373 70.4169 40.244V41.46C70.4169 45.4627 69.2263 48.6547 66.8449 51.036C64.4636 53.4173 61.3223 54.608 57.4209 54.608Z" fill="black"/>
<path d="M93.9229 1.56C93.9229 1.05333 94.1762 0.799996 94.6829 0.799996H98.5589C99.0656 0.799996 99.3189 1.05333 99.3189 1.56V53.24C99.3189 53.7467 99.0656 54 98.5589 54H94.6829C94.1762 54 93.9229 53.7467 93.9229 53.24V30.06C93.9229 29.8573 93.8216 29.756 93.6189 29.756H80.0909C79.8882 29.756 79.7869 29.8573 79.7869 30.06V53.24C79.7869 53.7467 79.5336 54 79.0269 54H75.1509C74.6443 54 74.3909 53.7467 74.3909 53.24V1.56C74.3909 1.05333 74.6443 0.799996 75.1509 0.799996H79.0269C79.5336 0.799996 79.7869 1.05333 79.7869 1.56V24.664C79.7869 24.8667 79.8882 24.968 80.0909 24.968H93.6189C93.8216 24.968 93.9229 24.8667 93.9229 24.664V1.56Z" fill="black"/>
<path d="M124.983 54C124.527 54 124.248 53.772 124.147 53.316L122.247 43.892C122.247 43.7907 122.196 43.7147 122.095 43.664C122.044 43.6133 121.968 43.588 121.867 43.588H108.111C108.009 43.588 107.908 43.6133 107.807 43.664C107.756 43.7147 107.731 43.7907 107.731 43.892L105.831 53.316C105.78 53.772 105.501 54 104.995 54H101.119C100.865 54 100.663 53.924 100.511 53.772C100.409 53.62 100.384 53.4173 100.435 53.164L111.835 1.484C111.936 1.028 112.215 0.799996 112.671 0.799996H117.231C117.737 0.799996 118.016 1.028 118.067 1.484L129.619 53.164V53.316C129.619 53.772 129.391 54 128.935 54H124.983ZM108.719 38.876C108.719 39.0787 108.795 39.18 108.947 39.18H120.955C121.107 39.18 121.183 39.0787 121.183 38.876L115.103 9.008C115.052 8.856 115.001 8.78 114.951 8.78C114.9 8.78 114.849 8.856 114.799 9.008L108.719 38.876Z" fill="black"/>
<path d="M154.862 4.752C154.862 5.25867 154.609 5.512 154.102 5.512H136.47C136.268 5.512 136.166 5.61333 136.166 5.816V24.664C136.166 24.8667 136.268 24.968 136.47 24.968H147.566C148.073 24.968 148.326 25.2213 148.326 25.728V28.996C148.326 29.5027 148.073 29.756 147.566 29.756H136.47C136.268 29.756 136.166 29.8573 136.166 30.06V48.984C136.166 49.1867 136.268 49.288 136.47 49.288H154.102C154.609 49.288 154.862 49.5413 154.862 50.048V53.24C154.862 53.7467 154.609 54 154.102 54H131.53C131.024 54 130.77 53.7467 130.77 53.24V1.56C130.77 1.05333 131.024 0.799996 131.53 0.799996H154.102C154.609 0.799996 154.862 1.05333 154.862 1.56V4.752Z" fill="black"/>
<path d="M158.792 54C158.286 54 158.032 53.7467 158.032 53.24V1.56C158.032 1.05333 158.286 0.799996 158.792 0.799996H162.668C163.175 0.799996 163.428 1.05333 163.428 1.56V48.984C163.428 49.1867 163.53 49.288 163.732 49.288H181.136C181.643 49.288 181.896 49.5413 181.896 50.048V53.24C181.896 53.7467 181.643 54 181.136 54H158.792Z" fill="black"/>
<path d="M212.272 1.56C212.272 1.05333 212.525 0.799996 213.032 0.799996H216.908C217.415 0.799996 217.668 1.05333 217.668 1.56V53.24C217.668 53.7467 217.415 54 216.908 54H213.032C212.525 54 212.272 53.7467 212.272 53.24V30.06C212.272 29.8573 212.171 29.756 211.968 29.756H198.44C198.237 29.756 198.136 29.8573 198.136 30.06V53.24C198.136 53.7467 197.883 54 197.376 54H193.5C192.993 54 192.74 53.7467 192.74 53.24V1.56C192.74 1.05333 192.993 0.799996 193.5 0.799996H197.376C197.883 0.799996 198.136 1.05333 198.136 1.56V24.664C198.136 24.8667 198.237 24.968 198.44 24.968H211.968C212.171 24.968 212.272 24.8667 212.272 24.664V1.56Z" fill="black"/>
<path d="M235.808 54.608C231.906 54.608 228.765 53.2653 226.384 50.58C224.002 47.8947 222.812 44.348 222.812 39.94V1.56C222.812 1.05333 223.065 0.799996 223.572 0.799996H227.448C227.954 0.799996 228.208 1.05333 228.208 1.56V40.548C228.208 43.3347 228.892 45.5893 230.26 47.312C231.678 49.0347 233.528 49.896 235.808 49.896C238.138 49.896 240.013 49.0347 241.432 47.312C242.85 45.5893 243.56 43.3347 243.56 40.548V1.56C243.56 1.05333 243.813 0.799996 244.32 0.799996H248.196C248.702 0.799996 248.956 1.05333 248.956 1.56V39.94C248.956 44.348 247.74 47.8947 245.308 50.58C242.926 53.2653 239.76 54.608 235.808 54.608Z" fill="black"/>
<path d="M274.333 1.56C274.333 1.05333 274.587 0.799996 275.093 0.799996H278.893C279.4 0.799996 279.653 1.05333 279.653 1.56V53.24C279.653 53.7467 279.4 54 278.893 54H274.409C274.004 54 273.725 53.7973 273.573 53.392L258.753 14.1C258.703 13.948 258.627 13.8973 258.525 13.948C258.424 13.948 258.373 14.024 258.373 14.176L258.449 53.24C258.449 53.7467 258.196 54 257.689 54H253.813C253.307 54 253.053 53.7467 253.053 53.24V1.56C253.053 1.05333 253.307 0.799996 253.813 0.799996H258.221C258.627 0.799996 258.905 1.00266 259.057 1.408L273.953 40.776C274.004 40.928 274.08 41.004 274.181 41.004C274.283 40.9533 274.333 40.852 274.333 40.7V1.56Z" fill="black"/>
<path d="M296.842 54.608C292.94 54.608 289.824 53.468 287.494 51.188C285.163 48.8573 283.998 45.7667 283.998 41.916V12.884C283.998 9.03333 285.163 5.968 287.494 3.688C289.824 1.35733 292.94 0.191999 296.842 0.191999C300.743 0.191999 303.859 1.35733 306.19 3.688C308.571 6.01866 309.762 9.10933 309.762 12.96V16.228C309.762 16.7347 309.508 16.988 309.002 16.988H305.126C304.619 16.988 304.366 16.7347 304.366 16.228V12.808C304.366 10.4267 303.682 8.52666 302.314 7.108C300.946 5.63866 299.122 4.904 296.842 4.904C294.612 4.904 292.788 5.63866 291.37 7.108C290.002 8.57733 289.318 10.4773 289.318 12.808V41.992C289.318 44.3227 290.002 46.2227 291.37 47.692C292.788 49.1613 294.612 49.896 296.842 49.896C299.122 49.896 300.946 49.1867 302.314 47.768C303.682 46.2987 304.366 44.3733 304.366 41.992V32.264C304.366 32.0613 304.264 31.96 304.062 31.96H297.526C297.019 31.96 296.766 31.7067 296.766 31.2V28.008C296.766 27.5013 297.019 27.248 297.526 27.248H309.002C309.508 27.248 309.762 27.5013 309.762 28.008V41.916C309.762 45.7667 308.571 48.8573 306.19 51.188C303.859 53.468 300.743 54.608 296.842 54.608Z" fill="black"/>
<path d="M340.175 39.56C340.225 44.12 339.009 47.6667 336.527 50.2C334.044 52.7333 330.725 54 326.571 54H314.943C314.436 54 314.183 53.7467 314.183 53.24V1.56C314.183 1.05333 314.436 0.799996 314.943 0.799996H325.887C330.244 0.799996 333.664 2.016 336.147 4.448C338.629 6.82933 339.871 10.2493 339.871 14.708C339.871 20.3827 337.768 24.2587 333.563 26.336C333.461 26.3867 333.411 26.4373 333.411 26.488C333.411 26.5387 333.436 26.5893 333.487 26.64C337.945 29.224 340.175 33.5307 340.175 39.56ZM319.883 5.512C319.68 5.512 319.579 5.61333 319.579 5.816V24.132C319.579 24.3347 319.68 24.436 319.883 24.436H325.887C328.623 24.436 330.751 23.6253 332.271 22.004C333.791 20.3827 334.551 18.1027 334.551 15.164C334.551 12.124 333.791 9.768 332.271 8.096C330.751 6.37333 328.623 5.512 325.887 5.512H319.883ZM326.191 49.212C328.876 49.212 330.979 48.3253 332.499 46.552C334.019 44.728 334.779 42.1947 334.779 38.952C334.779 35.6587 334.019 33.1 332.499 31.276C330.979 29.452 328.876 28.54 326.191 28.54H319.883C319.68 28.54 319.579 28.6413 319.579 28.844V48.908C319.579 49.1107 319.68 49.212 319.883 49.212H326.191Z" fill="black"/>
<path d="M354.783 54.608C350.882 54.608 347.715 53.392 345.283 50.96C342.902 48.528 341.711 45.3107 341.711 41.308V13.492C341.711 9.48933 342.902 6.272 345.283 3.84C347.715 1.408 350.882 0.191999 354.783 0.191999C358.735 0.191999 361.927 1.408 364.359 3.84C366.791 6.272 368.007 9.48933 368.007 13.492V41.308C368.007 45.26 366.791 48.4773 364.359 50.96C361.927 53.392 358.735 54.608 354.783 54.608ZM354.783 49.896C357.114 49.896 358.989 49.136 360.407 47.616C361.877 46.0453 362.611 44.044 362.611 41.612V13.264C362.611 10.7813 361.877 8.78 360.407 7.26C358.989 5.68933 357.114 4.904 354.783 4.904C352.503 4.904 350.654 5.68933 349.235 7.26C347.817 8.78 347.107 10.7813 347.107 13.264V41.612C347.107 44.044 347.817 46.0453 349.235 47.616C350.654 49.136 352.503 49.896 354.783 49.896Z" fill="black"/>
</svg>
