<svg width="750" height="500" viewBox="0 0 750 500" fill="none" xmlns="http://www.w3.org/2000/svg">
<path d="M703.901 297.773C719.252 294.102 728.721 278.681 725.049 263.33C721.378 247.978 705.957 238.51 690.606 242.181C675.254 245.852 665.786 261.274 669.457 276.625C673.128 291.976 688.549 301.445 703.901 297.773Z" fill="#111010"/>
<path d="M697.25 241.41L697.71 241.47L699.07 241.57L700.07 241.63L701.26 241.82C702.253 241.955 703.235 242.158 704.2 242.43C706.862 243.106 709.407 244.178 711.75 245.61C717.955 249.389 722.486 255.39 724.422 262.392C726.358 269.394 725.552 276.871 722.17 283.3C721.509 284.505 720.764 285.661 719.94 286.76C719.108 287.888 718.2 288.958 717.22 289.96C716.191 290.957 715.095 291.883 713.94 292.73C711.581 294.477 708.953 295.828 706.16 296.73C700.379 298.677 694.121 298.677 688.34 296.73C685.548 295.824 682.921 294.473 680.56 292.73C679.409 291.878 678.313 290.952 677.28 289.96C676.306 288.952 675.397 287.884 674.56 286.76C673.736 285.661 672.991 284.505 672.33 283.3C669.346 277.609 668.336 271.087 669.46 264.76C670.201 260.811 671.769 257.063 674.061 253.762C676.354 250.462 679.318 247.684 682.76 245.61C685.102 244.176 687.648 243.104 690.31 242.43C691.274 242.157 692.257 241.954 693.25 241.82L694.44 241.63L695.44 241.57L696.8 241.47L697.26 241.41C697.107 241.388 696.953 241.388 696.8 241.41H695.44H694.44C694.07 241.41 693.67 241.51 693.24 241.57C692.227 241.676 691.224 241.859 690.24 242.12C687.536 242.759 684.946 243.808 682.56 245.23C679.038 247.305 675.998 250.107 673.642 253.449C671.287 256.79 669.67 260.595 668.9 264.61C667.939 269.684 668.357 274.923 670.11 279.78C670.575 281.072 671.126 282.332 671.76 283.55C673.114 286.04 674.796 288.337 676.76 290.38C677.812 291.401 678.931 292.35 680.11 293.22C682.534 295.025 685.236 296.423 688.11 297.36C694.029 299.36 700.441 299.36 706.36 297.36C709.233 296.422 711.935 295.024 714.36 293.22C715.541 292.352 716.661 291.403 717.71 290.38C718.712 289.353 719.641 288.257 720.49 287.1C721.331 285.973 722.09 284.787 722.76 283.55C723.396 282.333 723.948 281.073 724.41 279.78C726.163 274.923 726.581 269.684 725.62 264.61C724.85 260.595 723.233 256.79 720.878 253.449C718.522 250.107 715.482 247.305 711.96 245.23C709.574 243.806 706.984 242.757 704.28 242.12C703.295 241.864 702.292 241.68 701.28 241.57C700.85 241.51 700.45 241.44 700.08 241.41H699.08H697.71C697.557 241.388 697.403 241.388 697.25 241.41Z" fill="white"/>
<path d="M677 231.4C676.044 231.398 675.109 231.68 674.313 232.21C673.517 232.74 672.896 233.494 672.53 234.377C672.163 235.26 672.066 236.232 672.252 237.17C672.438 238.108 672.899 238.969 673.575 239.645C674.251 240.321 675.112 240.782 676.05 240.968C676.988 241.154 677.96 241.057 678.843 240.69C679.726 240.324 680.48 239.703 681.01 238.907C681.54 238.111 681.822 237.176 681.82 236.22C681.82 234.942 681.312 233.716 680.408 232.812C679.504 231.908 678.278 231.4 677 231.4Z" fill="#111010"/>
<path d="M677 231.4C677 231.46 677.43 231.47 678.14 231.68C679.143 231.983 680.021 232.604 680.64 233.45C681.139 234.124 681.442 234.924 681.513 235.76C681.585 236.596 681.423 237.435 681.046 238.184C680.668 238.934 680.09 239.563 679.376 240.003C678.661 240.444 677.839 240.677 677 240.677C676.161 240.677 675.338 240.444 674.624 240.003C673.91 239.563 673.332 238.934 672.954 238.184C672.577 237.435 672.415 236.596 672.487 235.76C672.558 234.924 672.861 234.124 673.36 233.45C673.976 232.605 674.85 231.984 675.85 231.68C676.57 231.47 677 231.46 677 231.4C676.603 231.298 676.187 231.298 675.79 231.4C674.672 231.624 673.671 232.241 672.97 233.14C672.435 233.808 672.081 234.602 671.941 235.446C671.801 236.29 671.88 237.155 672.17 237.96C672.526 238.956 673.182 239.817 674.046 240.426C674.911 241.035 675.942 241.361 677 241.361C678.057 241.361 679.089 241.035 679.954 240.426C680.818 239.817 681.474 238.956 681.83 237.96C682.12 237.155 682.199 236.29 682.059 235.446C681.919 234.602 681.565 233.808 681.03 233.14C680.327 232.243 679.327 231.626 678.21 231.4C677.813 231.297 677.397 231.297 677 231.4Z" fill="white"/>
<path d="M696.87 283.18C696.369 283.211 695.867 283.14 695.395 282.972C694.923 282.803 694.489 282.54 694.122 282.198C693.754 281.857 693.46 281.444 693.257 280.986C693.054 280.527 692.946 280.032 692.94 279.53C693.096 278.597 693.579 277.749 694.301 277.138C695.023 276.526 695.939 276.191 696.885 276.191C697.831 276.191 698.747 276.526 699.469 277.138C700.191 277.749 700.674 278.597 700.83 279.53C700.822 280.033 700.711 280.53 700.505 280.989C700.299 281.449 700.002 281.862 699.632 282.203C699.261 282.544 698.826 282.807 698.351 282.975C697.876 283.143 697.372 283.213 696.87 283.18ZM699.51 274H694.26L692.94 258.53H700.8L699.51 274Z" fill="white"/>
<path d="M49.07 296.7C59.0166 300.594 69.7332 302.119 80.3712 301.154C91.0092 300.189 101.276 296.76 110.36 291.14C91.87 286.18 65.53 286.93 49.07 296.7Z" fill="#141212"/>
<path d="M38 278.77C46.4922 282.093 55.6418 283.392 64.7233 282.564C73.8049 281.736 82.5687 278.804 90.32 274C74.54 269.79 52.06 270.43 38 278.77Z" fill="#141212"/>
<path d="M30.79 262.43C37.5885 265.092 44.9138 266.134 52.185 265.473C59.4562 264.811 66.4733 262.465 72.68 258.62C60 255.23 42 255.75 30.79 262.43Z" fill="#141212"/>
<path d="M107.76 231.62C112.606 241.303 115.129 251.982 115.129 262.81C115.129 273.638 112.606 284.317 107.76 294C101.05 275.79 99.4 249.13 107.76 231.62Z" fill="#141212"/>
<path d="M88.65 222.1C92.7829 230.365 94.9346 239.479 94.9346 248.72C94.9346 257.961 92.7829 267.075 88.65 275.34C82.92 259.79 81.52 237.05 88.65 222.1Z" fill="#141212"/>
<path d="M71.5 216.29C74.8094 222.912 76.5323 230.212 76.5323 237.615C76.5323 245.018 74.8094 252.318 71.5 258.94C66.91 246.49 65.78 228.26 71.5 216.29Z" fill="#141212"/>
<path d="M24.35 218.51C30.87 233.58 48.77 248.39 64.8 251.94C56.94 234.38 41.5 220.89 24.35 218.51Z" fill="#141212"/>
<path d="M134.48 316.06C134.16 316.41 116.48 300.73 94.88 281.06C73.28 261.39 56.12 245.1 56.43 244.75C56.74 244.4 74.48 260.08 96.03 279.75C117.58 299.42 134.8 315.71 134.48 316.06Z" fill="#141212"/>
<path d="M514.3 139.51C512.254 152.36 513.228 165.511 517.146 177.919C521.063 190.328 527.816 201.654 536.87 211C538 187.73 530.22 156.57 514.3 139.51Z" fill="#141212"/>
<path d="M532.77 121.68C531.028 132.645 531.861 143.865 535.203 154.452C538.546 165.04 544.307 174.704 552.03 182.68C553 162.84 546.36 136.24 532.77 121.68Z" fill="#141212"/>
<path d="M550.35 108.83C548.951 117.618 549.616 126.61 552.295 135.096C554.973 143.582 559.59 151.328 565.78 157.72C566.53 141.79 561.23 120.49 550.35 108.83Z" fill="#141212"/>
<path d="M607.05 192.47C596.776 200.751 584.715 206.526 571.822 209.338C558.929 212.149 545.559 211.921 532.77 208.67C552.72 196 584 187.06 607.05 192.47Z" fill="#141212"/>
<path d="M613.42 167.24C604.65 174.313 594.352 179.246 583.344 181.647C572.335 184.047 560.919 183.85 550 181.07C567.05 170.22 593.77 162.63 613.42 167.24Z" fill="#141212"/>
<path d="M615.87 145.3C608.848 150.96 600.604 154.907 591.792 156.828C582.98 158.75 573.841 158.593 565.1 156.37C578.73 147.69 600.13 141.61 615.87 145.3Z" fill="#141212"/>
<path d="M601 89.74C584.76 101.42 571.78 126.58 571.73 146.59C590.54 132.67 602.59 110.78 601 89.74Z" fill="#141212"/>
<path d="M513.47 246.24C513 246 527 220.76 544.86 190C562.72 159.24 577.57 134.49 578.07 134.78C578.57 135.07 564.51 160.25 546.67 191.04C528.83 221.83 514 246.53 513.47 246.24Z" fill="#141212"/>
<path d="M615 374.2C605.54 370.05 595.243 368.16 584.926 368.68C574.608 369.201 564.554 372.118 555.56 377.2C573.26 382.72 598.73 383 615 374.2Z" fill="#141212"/>
<path d="M625 392C616.925 388.463 608.137 386.853 599.332 387.299C590.527 387.745 581.947 390.235 574.27 394.57C589.37 399.22 611.11 399.47 625 392Z" fill="#141212"/>
<path d="M631.36 408C624.894 405.166 617.857 403.876 610.807 404.234C603.756 404.592 596.886 406.586 590.74 410.06C602.82 413.84 620.23 414 631.36 408Z" fill="#141212"/>
<path d="M555.8 434.83C551.497 425.284 549.476 414.867 549.896 404.404C550.316 393.942 553.166 383.721 558.22 374.55C564 392.41 564.55 418.23 555.8 434.83Z" fill="#141212"/>
<path d="M573.9 444.76C570.233 436.611 568.514 427.721 568.878 418.792C569.243 409.864 571.681 401.143 576 393.32C580.88 408.56 581.37 430.6 573.9 444.76Z" fill="#141212"/>
<path d="M590.25 451C587.309 444.475 585.928 437.355 586.216 430.204C586.504 423.053 588.453 416.067 591.91 409.8C595.85 422 596.24 439.68 590.25 451Z" fill="#141212"/>
<path d="M635.89 450.7C630.17 435.89 613.45 420.89 598.1 416.85C605 434.11 619.41 447.74 635.89 450.7Z" fill="#141212"/>
<path d="M533.23 352.21C533.55 351.89 550.08 367.72 570.15 387.57C590.22 407.42 606.22 423.79 605.9 424.11C605.58 424.43 589.05 408.61 568.98 388.75C548.91 368.89 532.91 352.53 533.23 352.21Z" fill="#141212"/>
<path d="M567.73 24.17H158.35V473.61H567.73V24.17Z" fill="#23222A" fill-opacity="0.99"/>
<path d="M90.2767 124.027C106.765 118.926 115.996 101.425 110.895 84.9371C105.794 68.4491 88.2933 59.218 71.8054 64.3187C55.3175 69.4194 46.0863 86.9205 51.187 103.408C56.2877 119.896 73.7888 129.128 90.2767 124.027Z" fill="#111010"/>
<path d="M81 62.92C81.1682 62.9531 81.3387 62.9731 81.51 62.98L82.99 63.09L84.08 63.17C84.48 63.17 84.91 63.3 85.38 63.37C86.4678 63.517 87.5438 63.7409 88.6 64.04C91.5095 64.7733 94.2911 65.9432 96.85 67.51C103.024 71.214 107.716 76.9514 110.121 83.7374C112.526 90.5235 112.494 97.935 110.03 104.7C109.527 106.072 108.932 107.408 108.25 108.7C107.532 110.017 106.72 111.28 105.82 112.48C104.901 113.717 103.898 114.889 102.82 115.99C101.693 117.067 100.497 118.069 99.24 118.99C96.6587 120.908 93.7852 122.397 90.73 123.4C87.5817 124.418 84.2984 124.957 80.99 125C77.6791 124.956 74.3932 124.421 71.24 123.41C68.205 122.403 65.3519 120.914 62.79 119C61.5285 118.084 60.3323 117.082 59.21 116C58.1346 114.897 57.1324 113.724 56.21 112.49C54.4116 110.127 52.9913 107.499 52 104.7C49.5492 97.9328 49.5246 90.5246 51.9304 83.7413C54.3362 76.958 59.0231 71.2208 65.19 67.51C67.7491 65.9274 70.5344 64.7438 73.45 64C74.5026 63.7 75.5753 63.4761 76.66 63.33C77.13 63.26 77.56 63.17 77.96 63.13L79.05 63.05L80.54 63L81.04 62.94C80.8707 62.9182 80.6993 62.9182 80.53 62.94H79.04L78 63C77.59 63 77.16 63.11 76.68 63.17C75.5834 63.2902 74.4972 63.4907 73.43 63.77C70.4722 64.4659 67.6391 65.6127 65.03 67.17C58.7055 70.886 53.8811 76.6983 51.3933 83.5989C48.9056 90.4996 48.9115 98.0533 51.41 104.95C51.9155 106.368 52.5203 107.748 53.22 109.08C53.9542 110.43 54.7829 111.727 55.7 112.96C56.6173 114.223 57.6196 115.423 58.7 116.55C59.8502 117.666 61.0729 118.705 62.36 119.66C65.0028 121.625 67.9434 123.155 71.07 124.19C74.3032 125.23 77.674 125.779 81.07 125.82C84.4671 125.782 87.8388 125.229 91.07 124.18C94.2009 123.155 97.1431 121.625 99.78 119.65C101.073 118.707 102.297 117.67 103.44 116.55C104.515 115.418 105.517 114.219 106.44 112.96C107.354 111.724 108.182 110.428 108.92 109.08C109.613 107.746 110.214 106.366 110.72 104.95C112.636 99.6378 113.095 93.9096 112.05 88.36C111.204 83.9681 109.435 79.806 106.859 76.1494C104.284 72.4929 100.961 69.4253 97.11 67.15C94.5009 65.5927 91.6678 64.4459 88.71 63.75C87.6394 63.4706 86.5499 63.2701 85.45 63.15C84.98 63.09 84.54 63.01 84.14 62.98H83.04H81.55C81.3703 62.9346 81.1852 62.9144 81 62.92Z" fill="#0E0606"/>
<path d="M104.66 125.11C103.616 125.11 102.595 125.42 101.727 126C100.858 126.58 100.182 127.405 99.7819 128.369C99.3823 129.334 99.2777 130.396 99.4815 131.42C99.6852 132.444 100.188 133.385 100.926 134.124C101.665 134.862 102.606 135.365 103.63 135.569C104.654 135.772 105.716 135.668 106.681 135.268C107.645 134.868 108.47 134.192 109.05 133.323C109.63 132.455 109.94 131.434 109.94 130.39C109.941 129.696 109.806 129.009 109.541 128.368C109.276 127.727 108.887 127.144 108.396 126.654C107.906 126.163 107.323 125.774 106.682 125.509C106.041 125.244 105.354 125.109 104.66 125.11Z" fill="#111010"/>
<path d="M104.66 125.11C104.66 125.18 105.13 125.18 105.92 125.42C107.017 125.753 107.975 126.434 108.65 127.36C109.207 128.103 109.546 128.986 109.63 129.911C109.713 130.836 109.537 131.766 109.122 132.596C108.707 133.427 108.069 134.125 107.279 134.613C106.489 135.101 105.579 135.36 104.65 135.36C103.721 135.36 102.811 135.101 102.021 134.613C101.231 134.125 100.593 133.427 100.178 132.596C99.7626 131.766 99.5868 130.836 99.6702 129.911C99.7536 128.986 100.093 128.103 100.65 127.36C101.323 126.432 102.282 125.751 103.38 125.42C104.16 125.18 104.64 125.18 104.63 125.11C104.197 125 103.743 125 103.31 125.11C102.092 125.361 101.001 126.034 100.23 127.01C99.6484 127.742 99.2624 128.609 99.1085 129.531C98.9545 130.453 99.0377 131.399 99.35 132.28C99.7359 133.372 100.451 134.317 101.397 134.986C102.342 135.655 103.472 136.014 104.63 136.014C105.788 136.014 106.918 135.655 107.863 134.986C108.809 134.317 109.524 133.372 109.91 132.28C110.221 131.399 110.304 130.455 110.152 129.533C110 128.612 109.617 127.744 109.04 127.01C108.267 126.036 107.177 125.363 105.96 125.11C105.533 125.006 105.087 125.006 104.66 125.11Z" fill="white"/>
<path d="M81.75 108.42C81.2 108.461 80.6475 108.389 80.127 108.206C79.6065 108.024 79.1294 107.736 78.7256 107.36C78.3218 106.984 78 106.529 77.7805 106.023C77.561 105.517 77.4484 104.972 77.45 104.42C77.5403 103.338 78.0341 102.329 78.8333 101.594C79.6326 100.858 80.6789 100.45 81.765 100.45C82.851 100.45 83.8974 100.858 84.6967 101.594C85.4959 102.329 85.9897 103.338 86.08 104.42C86.0702 104.971 85.9491 105.514 85.7238 106.016C85.4985 106.519 85.1738 106.971 84.7692 107.345C84.3646 107.718 83.8885 108.006 83.3696 108.191C82.8507 108.376 82.2998 108.454 81.75 108.42ZM84.64 98.42H78.89L77.45 81.46H86L84.64 98.42Z" fill="white"/>
<path d="M276.91 232.72H222.92V247H276.91V232.72Z" fill="#E0E0E0"/>
<path d="M254.09 262C254.075 261.914 254.075 261.826 254.09 261.74C254.09 261.55 254.09 261.31 254.09 261.01C254.09 260.34 254.09 259.4 254.09 258.2C254.09 255.74 254.09 252.2 254 247.72L254.17 247.89L200.17 248C200.29 247.87 199.89 248.27 200.44 247.72V255C200.44 257.38 200.44 259.73 200.44 262L200.17 261.74L238.65 261.86L250.01 261.93H253.08H253.88H254.17C254.087 261.946 254.003 261.946 253.92 261.93H253.15H250.15L238.86 262.01L200.19 262.13H199.92V247.77C200.47 247.22 200.07 247.62 200.2 247.5L254.2 247.6H254.36V247.77C254.36 252.28 254.29 255.86 254.27 258.35C254.27 259.54 254.27 260.46 254.27 261.12C254.27 261.41 254.27 261.64 254.27 261.83C254.215 261.891 254.154 261.948 254.09 262Z" fill="#263238"/>
<path d="M522.8 377.74H468.81V392.02H522.8V377.74Z" fill="#E0E0E0"/>
<path d="M348.54 340.99H294.55V355.27H348.54V340.99Z" fill="#EBEBEB"/>
<path d="M500 407.07C500 407.07 500 406.97 500 406.81V406.07C500 405.4 500 404.46 500 403.26C500 400.8 500 397.26 499.91 392.78L500.07 392.95L446.07 393.06L446.35 392.78V396.43C446.35 397.64 446.35 398.84 446.35 400.03V407.03L446.08 406.76L484.56 406.88L495.91 406.96H498.99H499.79C499.883 406.945 499.977 406.945 500.07 406.96H499.82H499.05H496.05L484.76 407.03L446.09 407.15H445.82V392.79L446.09 392.52L500.09 392.62H500.26V392.79C500.26 397.3 500.19 400.88 500.17 403.37C500.17 404.56 500.17 405.48 500.17 406.15C500.17 406.43 500.17 406.67 500.17 406.85C500.124 406.931 500.067 407.005 500 407.07Z" fill="#263238"/>
<path d="M348.54 120.08H294.55V134.36H348.54V120.08Z" fill="#E0E0E0"/>
<path d="M250.09 60H196.1V74.28H250.09V60Z" fill="#EBEBEB"/>
<path d="M325.71 149.41C325.71 149.41 325.71 149.31 325.71 149.15C325.71 148.99 325.71 148.71 325.71 148.41C325.71 147.74 325.71 146.8 325.71 145.6C325.71 143.14 325.66 139.6 325.62 135.12L325.78 135.29L271.78 135.4L272.06 135.12V138.77C272.06 139.98 272.06 141.18 272.06 142.37V149.37L271.79 149.1L310.27 149.22L321.63 149.3H324.7H325.5C325.593 149.285 325.687 149.285 325.78 149.3H325.53H324.76H321.76L310.47 149.37L271.8 149.49H271.53V135.13L271.8 134.86L325.8 134.96H325.97V135.13C325.97 139.64 325.9 143.22 325.88 145.71C325.88 146.9 325.88 147.82 325.88 148.49C325.88 148.77 325.88 149.01 325.88 149.19C325.841 149.276 325.783 149.351 325.71 149.41Z" fill="#263238"/>
<path d="M512.74 169.28C512.733 169.193 512.733 169.107 512.74 169.02C512.74 168.83 512.74 168.58 512.74 168.28C512.74 167.61 512.74 166.67 512.74 165.47C512.74 163.01 512.74 159.47 512.65 154.99L512.82 155.16L458.82 155.27C458.94 155.14 458.54 155.54 459.09 154.99V162.24C459.09 164.62 459.09 166.97 459.09 169.24L458.83 168.97L497.3 169.09L508.66 169.17H511.73H512.53C512.626 169.156 512.724 169.156 512.82 169.17H512.57H511.8H508.8L497.5 169.24L458.84 169.37H458.57V169.1C458.57 166.8 458.57 164.45 458.57 162.1V155C459.12 154.45 458.72 154.85 458.85 154.73L512.85 154.83H513.02V155C513.02 159.51 512.94 163.09 512.92 165.58C512.92 166.77 512.92 167.69 512.92 168.36V169.06C512.75 169.21 512.74 169.28 512.74 169.28Z" fill="#263238"/>
<path d="M520.06 155C520.052 154.91 520.052 154.82 520.06 154.73C520.06 154.53 520.06 154.28 520.06 153.97C520.06 153.27 520.06 152.32 520.06 151.11C520.06 148.61 520 145.11 519.95 140.72L520.15 140.92L487.71 140.99L487.98 140.72V148.07C487.98 150.46 487.98 152.77 487.98 154.99L487.72 154.73L510.92 154.85L517.68 154.93H519.51H520.16C519.964 154.944 519.766 154.944 519.57 154.93H517.8L511.1 155L487.72 155.12H487.46V155C487.46 152.78 487.46 150.473 487.46 148.08C487.46 146.88 487.46 145.67 487.46 144.44V140.73L487.74 140.45L520.18 140.53H520.38V140.73C520.38 145.13 520.3 148.73 520.27 151.24C520.27 152.43 520.27 153.37 520.27 154.06C520.219 154.377 520.149 154.691 520.06 155Z" fill="#263238"/>
<path d="M445.54 279.71C445.532 279.623 445.532 279.537 445.54 279.45C445.54 279.26 445.54 279.02 445.54 278.72C445.54 278.04 445.54 277.11 445.54 275.91C445.54 273.44 445.54 269.91 445.45 265.43L445.62 265.59L391.62 265.7L391.89 265.43V272.66C391.89 275.05 391.89 277.39 391.89 279.66L391.62 279.39L430.1 279.51L441.46 279.59H444.53H445.33H445.62H445.37H444.6H441.6L430.31 279.67L391.64 279.79H391.37V265.45L391.65 265.17L445.65 265.28H445.82V265.45C445.82 269.96 445.75 273.54 445.73 276.03C445.73 277.21 445.73 278.14 445.73 278.8C445.73 279.09 445.73 279.32 445.73 279.5C445.672 279.575 445.609 279.645 445.54 279.71Z" fill="#263238"/>
<path d="M477.77 67.16C477.757 67.0738 477.757 66.9862 477.77 66.9V66.16C477.77 65.49 477.77 64.55 477.77 63.35C477.77 60.89 477.72 57.35 477.68 52.87L477.85 53.04L423.85 53.15C423.97 53.02 423.57 53.42 424.12 52.87V60.12C424.12 62.5 424.12 64.85 424.12 67.12L423.85 66.85L462.33 66.97L473.69 67.05H476.76H477.56C477.656 67.0367 477.754 67.0367 477.85 67.05H477.6H476.83H473.83L462.54 67.12L423.87 67.24H423.6V52.88C424.15 52.33 423.75 52.73 423.88 52.61L477.88 52.71H478.04V52.88C478.04 57.39 477.97 60.97 477.95 63.46C477.95 64.65 477.95 65.57 477.95 66.24C477.95 66.52 477.95 66.75 477.95 66.94C477.895 67.0174 477.835 67.0909 477.77 67.16Z" fill="#263238"/>
<path d="M289.45 455.12C289.45 455.12 289.45 455.03 289.45 454.86C289.45 454.69 289.45 454.43 289.45 454.13C289.45 453.46 289.45 452.52 289.45 451.32C289.45 448.85 289.39 445.32 289.35 440.84L289.52 441L235.52 441.11L235.79 440.84V455.1L235.52 454.83L274 454.95L285.35 455.03H288.42H289.23H289.51C289.427 455.04 289.343 455.04 289.26 455.03H288.49H285.49L274.19 455.11L235.53 455.23H235.26V454.96C235.26 452.66 235.26 450.327 235.26 447.96V440.73L235.54 440.45L289.54 440.56H289.71V440.73C289.71 445.24 289.64 448.82 289.62 451.31C289.62 452.49 289.62 453.42 289.62 454.08C289.62 454.37 289.62 454.6 289.62 454.78C289.62 454.96 289.46 455.13 289.45 455.12Z" fill="#263238"/>
<path d="M690.25 176.39C692.025 177.886 694.309 178.639 696.626 178.491C698.943 178.343 701.113 177.305 702.682 175.595C704.252 173.884 705.1 171.634 705.049 169.313C704.998 166.992 704.053 164.78 702.41 163.14C704.313 162.612 706.001 161.498 707.236 159.957C708.47 158.416 709.189 156.525 709.289 154.553C709.39 152.581 708.868 150.627 707.796 148.968C706.725 147.309 705.159 146.029 703.32 145.31C704.226 143.591 704.672 141.667 704.614 139.725C704.556 137.783 703.997 135.888 702.99 134.226C701.983 132.564 700.564 131.191 698.869 130.24C697.175 129.29 695.263 128.793 693.32 128.8C692.326 126.157 690.477 123.923 688.067 122.451C685.657 120.98 682.825 120.357 680.02 120.68C678.56 119.426 676.736 118.674 674.816 118.533C672.897 118.392 670.983 118.87 669.355 119.897C667.727 120.924 666.472 122.446 665.772 124.239C665.073 126.032 664.967 128.002 665.47 129.86" fill="#263238"/>
<path d="M673.84 127.4L675.55 128.4C683.869 133.262 690.053 141.079 692.869 150.294C695.686 159.509 694.929 169.447 690.75 178.13C682.68 194.88 673.56 213.28 668.44 221.8C657.83 239.43 638.44 231.8 638.44 231.8L627.44 254.03L603.88 258.75L585.11 227.48L626.56 147.84C635.78 128.47 654.72 117.68 673.84 127.4Z" fill="#AE7461"/>
<path d="M638.44 231.81C638.44 231.81 626.86 225.92 619.31 211.45C619.31 211.45 617.52 227.62 636.18 236.39L638.44 231.81Z" fill="#6F4439"/>
<path d="M693.8 169C693.8 169 695.62 155.13 691.8 149.4C687.14 142.46 680.18 147.95 675 142.6C669.82 137.25 665.38 130.6 656.26 131.7C646.26 132.88 647.37 138.45 642.33 146.09C621.91 177.03 610.79 182.65 617.93 166.63C618.71 164.87 614.93 160.89 618.3 153.52C622.71 143.97 628.77 132.8 634.54 127.52C639.4 123.11 644.67 121.17 652.6 120.29C665.12 118.89 677.18 125.76 684.84 131.29C692.5 136.82 702.69 155.5 693.8 169Z" fill="#263238"/>
<path d="M619.33 166.81C619.689 166.145 619.909 165.415 619.978 164.662C620.046 163.91 619.962 163.151 619.729 162.433C619.496 161.714 619.12 161.05 618.624 160.48C618.127 159.911 617.52 159.448 616.84 159.12C613.34 157.49 608.55 157.22 604.77 164.19C598.05 176.57 611.86 180.75 612.07 180.41C612.28 180.07 616.56 172 619.33 166.81Z" fill="#AE7461"/>
<path d="M611.91 174.3C611.91 174.23 611.61 174.3 611.16 174.3C610.528 174.243 609.943 173.941 609.53 173.46C608.53 172.27 608.53 169.6 609.66 167.33C610.202 166.256 610.978 165.316 611.93 164.58C612.256 164.256 612.655 164.016 613.094 163.88C613.533 163.744 613.998 163.716 614.45 163.8C614.734 163.868 614.984 164.033 615.158 164.267C615.332 164.501 615.417 164.789 615.4 165.08C615.4 165.52 615.17 165.72 615.22 165.78C615.27 165.84 615.6 165.72 615.78 165.15C615.87 164.818 615.845 164.466 615.71 164.15C615.618 163.925 615.483 163.721 615.311 163.549C615.139 163.377 614.935 163.242 614.71 163.15C614.148 162.975 613.55 162.948 612.974 163.07C612.398 163.193 611.863 163.461 611.42 163.85C610.317 164.624 609.418 165.653 608.8 166.85C607.53 169.39 607.54 172.41 609.05 173.9C609.328 174.177 609.665 174.387 610.035 174.515C610.406 174.643 610.801 174.686 611.19 174.64C611.72 174.58 611.94 174.34 611.91 174.3Z" fill="#6F4439"/>
<path d="M633.33 143.42C634.27 145.42 635.33 147.5 637.08 148.8C638.83 150.1 641.68 150.28 643.08 148.58C643.71 147.82 644.08 146.72 645.02 146.39C646.14 146 647.22 146.96 648.17 147.66C651.49 150.1 657.89 148.66 660.8 145.71C660.881 146.636 661.31 147.496 662 148.118C662.691 148.739 663.591 149.076 664.52 149.06C666.044 149.025 667.55 148.724 668.97 148.17C670.75 147.57 672.89 147.36 674.36 148.52C675.18 149.18 675.71 150.2 676.66 150.65C678.34 151.44 680.21 150.03 681.38 148.59C682.55 147.15 683.81 145.41 685.67 145.34C687.38 145.27 688.74 146.68 690.08 147.76C691.42 148.84 693.52 149.6 694.73 148.38C695.018 148.032 695.234 147.63 695.363 147.197C695.491 146.764 695.531 146.309 695.48 145.86C695.35 143.814 694.535 141.87 693.165 140.345C691.795 138.819 689.951 137.799 687.93 137.45C688.513 135.079 688.381 132.588 687.549 130.292C686.716 127.996 685.223 125.998 683.255 124.551C681.288 123.104 678.936 122.273 676.497 122.163C674.057 122.052 671.64 122.667 669.55 123.93C668.943 122.007 667.882 120.259 666.455 118.833C665.029 117.408 663.28 116.347 661.357 115.742C659.433 115.136 657.392 115.004 655.406 115.355C653.421 115.706 651.549 116.531 649.95 117.76C648.69 116.507 647.09 115.652 645.349 115.299C643.608 114.947 641.801 115.113 640.153 115.777C638.505 116.442 637.088 117.575 636.078 119.036C635.068 120.498 634.509 122.224 634.47 124C631.55 124 628.42 125 626.9 127.53C625.38 130.06 626.37 133.95 629.18 134.71C628.022 135.373 627.175 136.469 626.826 137.756C626.476 139.044 626.652 140.417 627.315 141.575C627.978 142.733 629.074 143.58 630.361 143.929C631.649 144.279 633.022 144.103 634.18 143.44" fill="#263238"/>
<path d="M686.78 141.55C686.78 141.55 686.78 141.64 686.64 141.77C686.5 141.9 686.4 142.13 686.19 142.38C685.543 143.104 684.783 143.719 683.94 144.2C682.6 144.966 681.101 145.41 679.56 145.5C677.516 145.65 675.479 145.127 673.76 144.01L674.12 143.86C673.84 145.179 673.049 146.333 671.92 147.07C670.736 147.843 669.446 148.439 668.09 148.84C667.391 149.118 666.663 149.319 665.92 149.44C665.118 149.5 664.314 149.359 663.58 149.03C662.802 148.715 662.113 148.214 661.574 147.571C661.036 146.927 660.663 146.161 660.49 145.34L661.02 145.48C660.108 146.634 658.966 147.586 657.666 148.274C656.366 148.963 654.937 149.374 653.47 149.48C651.817 149.669 650.147 149.318 648.71 148.48C647.399 147.628 646.243 146.559 645.29 145.32H645.7C644.209 146.421 642.466 147.133 640.63 147.39C639.765 147.547 638.876 147.51 638.027 147.282C637.178 147.054 636.39 146.64 635.72 146.07C634.606 145.048 633.814 143.723 633.443 142.257C633.072 140.791 633.137 139.249 633.63 137.82L633.83 138.11C632.155 138.038 630.555 137.391 629.3 136.28C628.353 135.467 627.616 134.438 627.15 133.28C626.856 132.554 626.69 131.783 626.66 131C626.648 130.729 626.668 130.457 626.72 130.19C626.75 131.221 626.97 132.239 627.37 133.19C627.86 134.286 628.596 135.254 629.52 136.02C630.73 137.047 632.253 137.632 633.84 137.68H634.14L634.04 137.97C633.594 139.31 633.546 140.749 633.901 142.116C634.256 143.482 634.999 144.717 636.04 145.67C636.653 146.185 637.374 146.556 638.149 146.755C638.925 146.954 639.735 146.976 640.52 146.82C642.254 146.558 643.896 145.871 645.3 144.82L645.52 144.65L645.71 144.86C646.626 146.034 647.731 147.048 648.98 147.86C650.306 148.642 651.85 148.972 653.38 148.8C654.767 148.697 656.118 148.306 657.346 147.652C658.574 146.998 659.651 146.095 660.51 145L660.92 144.47L661.04 145.13C661.195 145.855 661.525 146.53 662.001 147.099C662.477 147.667 663.084 148.11 663.77 148.39C664.416 148.682 665.123 148.812 665.83 148.77C666.514 148.652 667.184 148.465 667.83 148.21C669.138 147.837 670.385 147.275 671.53 146.54C672.55 145.881 673.269 144.846 673.53 143.66L673.6 143.31L673.9 143.51C675.525 144.595 677.459 145.121 679.41 145.01C680.901 144.95 682.36 144.557 683.68 143.86C684.842 143.279 685.891 142.497 686.78 141.55Z" fill="#455A64"/>
<path d="M672.84 190.45C672.649 190.784 672.394 191.078 672.09 191.314C671.785 191.549 671.437 191.723 671.066 191.824C670.694 191.925 670.307 191.952 669.925 191.904C669.543 191.855 669.174 191.731 668.84 191.54C668.505 191.374 668.206 191.142 667.962 190.859C667.718 190.576 667.532 190.246 667.417 189.891C667.301 189.535 667.258 189.16 667.29 188.787C667.321 188.414 667.427 188.051 667.6 187.72C667.791 187.386 668.046 187.092 668.35 186.856C668.655 186.621 669.003 186.447 669.374 186.346C669.746 186.245 670.133 186.218 670.515 186.266C670.897 186.315 671.266 186.439 671.6 186.63C671.935 186.796 672.234 187.028 672.478 187.311C672.722 187.594 672.908 187.923 673.023 188.279C673.139 188.635 673.182 189.01 673.15 189.383C673.119 189.756 673.014 190.119 672.84 190.45Z" fill="#263238"/>
<path d="M683.57 185.33C683.06 185.47 682 182.92 679.28 181.33C676.56 179.74 673.78 179.88 673.68 179.33C673.68 179.09 674.3 178.69 675.54 178.58C677.199 178.466 678.852 178.871 680.27 179.74C681.68 180.577 682.787 181.841 683.43 183.35C683.88 184.51 683.81 185.27 683.57 185.33Z" fill="#263238"/>
<path d="M641.67 193.67C642.15 193.9 641.27 196.52 642.26 199.52C643.25 202.52 645.46 204.23 645.2 204.67C645.09 204.89 644.32 204.75 643.31 204.02C641.986 203.006 641.005 201.609 640.5 200.02C639.989 198.457 639.989 196.773 640.5 195.21C640.9 194.08 641.45 193.55 641.67 193.67Z" fill="#263238"/>
<path d="M648 177.56C647.613 178.22 646.983 178.703 646.245 178.905C645.507 179.106 644.719 179.011 644.05 178.64C643.715 178.474 643.416 178.242 643.172 177.959C642.928 177.675 642.743 177.346 642.629 176.99C642.514 176.634 642.472 176.258 642.505 175.885C642.538 175.513 642.645 175.151 642.82 174.82C643.205 174.161 643.833 173.678 644.569 173.474C645.304 173.271 646.091 173.362 646.76 173.73C647.096 173.896 647.396 174.128 647.641 174.412C647.887 174.696 648.072 175.026 648.188 175.383C648.304 175.74 648.346 176.117 648.314 176.491C648.282 176.865 648.175 177.228 648 177.56Z" fill="#263238"/>
<path d="M656.65 170.06C656.14 170.2 655.07 167.64 652.36 166.06C649.65 164.48 646.86 164.61 646.76 164.06C646.7 163.83 647.37 163.43 648.62 163.32C650.279 163.206 651.932 163.611 653.35 164.48C654.76 165.317 655.867 166.581 656.51 168.09C657 169.24 656.89 170 656.65 170.06Z" fill="#263238"/>
<path d="M653.9 196.68C653.98 196.52 655.83 197.24 658.77 198.52C659.5 198.87 660.24 199.12 660.64 198.72C661.126 198.039 661.395 197.227 661.41 196.39C661.757 194.33 662.127 192.167 662.52 189.9C664.17 180.7 665.8 173.31 666.17 173.38C666.54 173.45 665.51 180.96 663.85 190.16C663.43 192.42 663.03 194.57 662.64 196.63C662.575 197.726 662.125 198.763 661.37 199.56C661.123 199.742 660.839 199.865 660.538 199.923C660.236 199.98 659.926 199.969 659.63 199.89C659.186 199.763 658.76 199.581 658.36 199.35C655.52 197.85 653.81 196.84 653.9 196.68Z" fill="#263238"/>
<path d="M664.28 160.47C663.59 161.07 661.04 159.18 657.58 157.77C654.12 156.36 651.02 155.77 650.97 154.86C650.97 154.43 651.81 153.98 653.27 153.86C655.174 153.753 657.077 154.081 658.834 154.821C660.591 155.561 662.157 156.693 663.41 158.13C664.33 159.26 664.6 160.18 664.28 160.47Z" fill="#263238"/>
<path d="M687.25 174.93C686.38 175.26 684.75 173.45 682.35 172.03C679.95 170.61 677.66 169.86 677.56 168.94C677.56 168.51 678.22 168.07 679.45 168C681.079 167.976 682.678 168.432 684.05 169.31C685.445 170.14 686.562 171.365 687.26 172.83C687.74 174 687.65 174.76 687.25 174.93Z" fill="#263238"/>
<path d="M652.7 264.46L634.3 242.82C616.3 242.18 598.9 228.94 595.57 207.08L577.23 198.62L567.73 201.11L568.14 396.11C568.14 396.11 620.94 341.75 620.94 340.82C620.94 339.89 652.7 264.46 652.7 264.46Z" fill="#101B20"/>
<path d="M586.29 335.61L606.4 349.2L634.13 295L652.7 264.63C652.7 264.63 666.25 277.71 660.7 302.91C655.15 328.11 643.89 354.71 643.89 354.71L637.83 371.37C637.83 371.37 633.35 387.58 628.08 392.6C622.81 397.62 605.25 401.38 596.72 397.12C588.19 392.86 570 359.94 570 359.94C582 352.79 589 342.43 586.29 335.61Z" fill="#101B20"/>
<path d="M642.9 288.73C642.814 288.862 642.72 288.988 642.62 289.11L641.73 290.17L638.34 294.17L626.11 308.38V308.33L615 331.82C612 338.01 609.21 343.92 606.63 349.31L606.53 348.99C610.401 351.056 613.932 353.703 617 356.84C619.413 359.302 621.437 362.117 623 365.19C624.012 367.19 624.82 369.287 625.41 371.45C625.62 372.2 625.72 372.8 625.81 373.19C625.864 373.386 625.901 373.587 625.92 373.79C625.839 373.604 625.779 373.409 625.74 373.21C625.62 372.82 625.49 372.21 625.26 371.5C624.611 369.371 623.767 367.305 622.74 365.33C621.16 362.31 619.138 359.542 616.74 357.12C613.663 354.039 610.136 351.442 606.28 349.42L606.08 349.31L606.18 349.1L614.51 331.59C618.61 323.01 622.51 314.97 625.73 308.15L638.14 294L641.63 290.07L642.56 289.07C642.66 288.944 642.774 288.83 642.9 288.73Z" fill="#263238"/>
<path d="M585.75 385.23C585.624 385.092 585.514 384.941 585.42 384.78C585.19 384.43 584.89 383.98 584.52 383.4C583.72 382.16 582.6 380.4 581.2 378.21C578.37 373.71 574.41 367.42 569.79 360.06L569.65 359.84L569.88 359.72C574.544 357.358 578.689 354.087 582.07 350.1C583.819 347.989 585.174 345.581 586.07 342.99C586.482 341.764 586.737 340.49 586.83 339.2C586.885 338.581 586.885 337.959 586.83 337.34C586.791 337.044 586.724 336.753 586.63 336.47C586.569 336.223 586.441 335.998 586.26 335.82L586.52 335.41L604.18 347.24L609.18 350.67L610.51 351.6C610.67 351.704 610.82 351.821 610.96 351.95C610.786 351.876 610.622 351.782 610.47 351.67L609.09 350.81L603.97 347.49L586.2 335.81L586.46 335.4C586.749 335.632 586.956 335.951 587.05 336.31C587.154 336.636 587.228 336.971 587.27 337.31C587.353 337.973 587.373 338.643 587.33 339.31C587.235 340.643 586.976 341.96 586.56 343.23C585.674 345.874 584.319 348.337 582.56 350.5C579.136 354.545 574.928 357.855 570.19 360.23L570.28 359.89L581.53 378.13L584.73 383.4L585.57 384.81C585.637 384.947 585.697 385.087 585.75 385.23Z" fill="#263238"/>
<path d="M581.59 331.26L580.53 331.84L570 340.28C570 340.28 567.94 347.28 568 347.73C568.06 348.18 572.83 358 572.83 358C587.29 349.49 586.83 338.46 586.83 338.46C586.83 338.46 582.13 332 581.59 331.26Z" fill="#AE7461"/>
<path d="M567.73 460C567.58 460 567.47 367.12 567.47 252.58C567.47 138.04 567.58 45.13 567.73 45.13C567.88 45.13 568 138 568 252.59C568 367.18 567.87 460 567.73 460Z" fill="#263238"/>
<path d="M567.37 179.91C567.37 179.91 579.62 184.16 580.84 187.4C581.516 189.511 581.333 191.803 580.33 193.78C580.33 193.78 581.91 197.23 581.27 200.07C580.63 202.91 579.62 203.07 579.62 203.07C580.428 203.557 581.047 204.304 581.376 205.189C581.705 206.073 581.724 207.043 581.43 207.94C581.075 209.78 580.075 211.432 578.61 212.6C578.61 212.6 580.03 216.75 578.21 219.89C576.39 223.03 575.98 226.78 572.53 227.18C569.08 227.58 553.19 222.52 551.97 219.08C550.75 215.64 555.92 213.81 555.92 213.81C555.92 213.81 545.59 210.87 545.79 207.33C545.99 203.79 549.79 202.57 549.79 202.57C549.79 202.57 546.65 201.05 549.18 198.01C551.71 194.97 556.58 196.79 558.71 197.01C558.71 197.01 558.3 192.55 562.76 192.85L567.42 192.75L567.37 179.91Z" fill="#AE7461"/>
<path d="M579.8 194.59C579.716 194.914 579.592 195.227 579.43 195.52C579.16 196.1 578.75 196.94 578.2 197.96C577.93 198.46 577.62 199.02 577.2 199.59C577.014 199.926 576.762 200.222 576.46 200.46C576.086 200.611 575.692 200.705 575.29 200.74C573.629 200.907 571.96 200.987 570.29 200.98C568.53 200.98 566.86 200.98 565.29 200.85C563.925 200.619 562.627 200.089 561.49 199.3C560.709 198.824 559.961 198.296 559.25 197.72C558.75 197.31 558.5 197.05 558.53 197.03C558.829 197.174 559.111 197.352 559.37 197.56C559.91 197.91 560.68 198.42 561.67 198.99C562.786 199.684 564.025 200.156 565.32 200.38C566.83 200.46 568.5 200.47 570.25 200.46C572 200.45 573.67 200.41 575.16 200.26C575.501 200.24 575.838 200.173 576.16 200.06C576.407 199.865 576.615 199.624 576.77 199.35C577.15 198.8 577.47 198.27 577.77 197.77C579.05 195.8 579.73 194.55 579.8 194.59Z" fill="#6F4439"/>
<path d="M574.4 187.7C573.111 188.5 571.968 189.515 571.02 190.7C570.718 191.114 570.457 191.556 570.24 192.02L570.17 192.17H570C569.018 192.163 568.047 192.379 567.16 192.8C567.16 192.8 567.34 192.5 567.82 192.22C568.491 191.835 569.257 191.648 570.03 191.68L569.79 191.83C570.004 191.327 570.276 190.85 570.6 190.41C571.253 189.49 572.104 188.728 573.09 188.18C573.85 187.75 574.38 187.64 574.4 187.7Z" fill="#6F4439"/>
<path d="M571 183.44C571 183.51 570.62 183.74 570 184.21C569.263 184.821 568.669 185.585 568.26 186.45C567.865 187.319 567.667 188.265 567.68 189.22C567.712 189.629 567.712 190.041 567.68 190.45C567.62 190.45 567.39 190.03 567.28 189.25C567.158 188.219 567.324 187.174 567.76 186.231C568.196 185.288 568.885 184.485 569.75 183.91C570.47 183.49 571 183.38 571 183.44Z" fill="#6F4439"/>
<path d="M579.75 203.25C579.569 203.66 579.344 204.048 579.08 204.41C578.423 205.444 577.655 206.403 576.79 207.27C575.49 208.616 573.737 209.432 571.87 209.56C569.74 209.64 567.59 208.84 565.35 208.21C560.86 206.86 556.85 205.44 553.96 204.39C552.52 203.87 551.35 203.39 550.55 203.12C550.128 202.978 549.719 202.797 549.33 202.58C549.771 202.646 550.204 202.76 550.62 202.92L554.08 204.05C557 205.05 561.02 206.36 565.5 207.71C567.75 208.35 569.88 209.14 571.85 209.08C573.613 208.973 575.278 208.235 576.54 207C577.413 206.172 578.206 205.265 578.91 204.29C579.16 203.92 579.441 203.572 579.75 203.25Z" fill="#6F4439"/>
<path d="M579.14 212.88C578.998 213.171 578.82 213.444 578.61 213.69C578.083 214.404 577.498 215.073 576.86 215.69C575.918 216.618 574.804 217.352 573.58 217.85C572.053 218.411 570.41 218.583 568.8 218.35C567.212 218.127 565.659 217.7 564.18 217.08C562.82 216.54 561.62 216 560.61 215.57C558.61 214.69 557.29 214.33 557.31 214.25C557.651 214.249 557.989 214.307 558.31 214.42C559.154 214.645 559.985 214.915 560.8 215.23C562.87 215.96 565.62 217.39 568.91 217.83C570.439 218.061 572.001 217.913 573.46 217.4C574.643 216.934 575.73 216.256 576.67 215.4C578.24 213.92 579.06 212.81 579.14 212.88Z" fill="#6F4439"/>
<path d="M540.74 307.55C540.74 307.55 538.32 303.89 543.08 302.03C547.84 300.17 557.16 297.13 560.08 296.86C563 296.59 578.3 300.38 578.3 300.38C578.3 300.38 583.68 301.96 583.61 305.83L582.61 309.48C583.862 310.915 584.551 312.755 584.55 314.66C584.391 316.423 583.77 318.113 582.75 319.56L582.13 332C582.13 332 581.58 341 578.13 344.63C574.68 348.26 569.02 347.32 569.02 347.32L568.02 347.69C568.02 347.69 561.39 342.62 563.19 336.21L555.69 331.11C555.69 331.11 539.75 328.9 538.92 324.62L539.2 322.41C539.2 322.41 533.27 321.52 533.27 317.41V315.34C532.72 314.805 532.352 314.112 532.215 313.357C532.079 312.602 532.182 311.823 532.51 311.13C533.68 308.71 534.85 307.95 537.51 307.89C538.598 307.94 539.687 307.825 540.74 307.55Z" fill="#AE7461"/>
<path d="M568.39 325.38C566.946 325.428 565.501 325.273 564.1 324.92C562.78 324.69 561.23 324.37 559.5 324.03C558.64 323.86 557.73 323.68 556.8 323.55C555.87 323.42 554.87 323.42 553.86 323.34C549.8 323.09 546.13 322.82 543.47 322.61L540.33 322.33C539.941 322.318 539.554 322.258 539.18 322.15C539.565 322.105 539.955 322.105 540.34 322.15L543.5 322.27C546.16 322.39 549.83 322.6 553.88 322.85C554.88 322.93 555.88 322.96 556.88 323.08C557.88 323.2 558.74 323.41 559.61 323.59L564.18 324.59C565.48 324.88 566.53 325.08 567.26 325.21C567.641 325.237 568.018 325.294 568.39 325.38Z" fill="#6F4439"/>
<path d="M570.44 316.7C569.955 316.783 569.46 316.8 568.97 316.75C568.03 316.75 566.67 316.63 564.97 316.49C563.27 316.35 561.29 316.17 559.08 315.95L555.6 315.6C554.41 315.49 553.15 315.48 551.87 315.44C546.74 315.37 542.09 315.44 538.72 315.44H534.72C534.232 315.452 533.744 315.429 533.26 315.37C533.74 315.27 534.23 315.223 534.72 315.23C535.66 315.23 537.02 315.13 538.72 315.08C542.09 314.98 546.72 314.87 551.89 314.94C553.18 314.94 554.43 314.99 555.66 315.11L559.14 315.49L565.01 316.15L569.01 316.56C569.489 316.58 569.966 316.627 570.44 316.7Z" fill="#6F4439"/>
<path d="M573.39 307.23C572.984 307.396 572.548 307.474 572.11 307.46C570.932 307.492 569.752 307.445 568.58 307.32C567.1 307.19 565.34 306.96 563.4 306.74C561.305 306.465 559.193 306.338 557.08 306.36C555.987 306.414 554.899 306.53 553.82 306.71C552.75 306.86 551.73 306.96 550.75 307.05C548.75 307.22 547.02 307.33 545.54 307.42C544.06 307.51 542.86 307.55 542.03 307.57C541.601 307.617 541.169 307.617 540.74 307.57C541.158 307.46 541.588 307.4 542.02 307.39L545.52 307.07L550.7 306.59C551.7 306.49 552.7 306.38 553.7 306.23C554.791 306.037 555.893 305.913 557 305.86C559.144 305.839 561.287 305.98 563.41 306.28L568.57 306.97C570.04 307.15 571.23 307.26 572.06 307.28C572.89 307.3 573.37 307.19 573.39 307.23Z" fill="#6F4439"/>
</svg>
